<svg xmlns="http://www.w3.org/2000/svg" width="127" height="63" fill="none"><path fill="#FAFAFA" d="m118.805 0-.027.002c-2.197.158-5.123.814-7.896 1.926h-96.67L3.738 47.554h68.127c1.446.843 3.204 1.335 5.166 1.506l.032.002h3.43l.029-.002a30 30 0 0 0 3.422-.475c2.038-.398 4.188-1.007 6.416-1.818a57 57 0 0 0 5.174-2.183c3.822-1.829 7.762-4.185 11.626-7.025a77 77 0 0 0 6.761-5.588l.004-.004.005-.005c2.769-2.664 4.873-5.374 6.093-7.822.635-1.275 1.034-2.481 1.133-3.6.1-1.12-.116-2.18-.746-3.011-.462-.61-1.111-1.014-1.855-1.28 2.424-1.988 4.398-4.11 5.692-6.188 1.511-2.426 2.186-4.83 1.448-6.853-.472-1.3-1.541-2.278-2.946-2.784a8 8 0 0 0-2.036-.421L120.682 0zm1.801 1.504c.615.007 1.162.166 1.633.335 1.07.385 1.728 1.02 2.04 1.88l.001.002c.496 1.362.067 3.334-1.311 5.546-1.379 2.212-3.657 4.61-6.55 6.777l-1.597 1.197 1.991.154c1.177.09 1.953.455 2.396 1.04.363.48.524 1.115.447 1.971-.076.856-.405 1.906-.982 3.064-1.107 2.223-3.112 4.832-5.784 7.405a72 72 0 0 1-3.025 2.659 76 76 0 0 1-3.596 2.814c-3.791 2.787-7.654 5.095-11.386 6.88a56 56 0 0 1-5.039 2.126c-2.162.788-4.24 1.375-6.19 1.756a29 29 0 0 1-3.23.45h-3.28l-.045-.006h.303c-3.002-.261-5.373-1.314-6.785-3.232a7 7 0 0 1-.668-1.137q-.178-.441-.348-.892c-.301-.957-.421-2.017-.367-3.148.15-3.151 1.63-6.9 4.197-10.824 2.725-4.171 6.675-8.543 11.565-12.6a74 74 0 0 1 3.416-2.678 73 73 0 0 1 4.423-2.997c5.447-3.424 10.881-5.82 15.696-7.037-4.601 1.498-9.77 4.043-14.878 7.507q-.275.186-.546.375a66.4 66.4 0 0 0-7.64 6.146c-7.21 6.768-11.02 13.78-9.289 17.89q.185.424.443.807c1.86 2.733 6.473 3.206 12.318 1.739.397-.1.795-.212 1.204-.33 1.867-.537 3.85-1.264 5.891-2.16q.736-.323 1.487-.677.076-.035.15-.075c6.445-3.197 11.397-6.876 12.469-9.086.235-.48.291-.89.132-1.212-.765-1.548-6.117-.502-12.6 2.302-.521.226-1.048.458-1.581.705.433-.402.885-.806 1.345-1.203a46 46 0 0 1 6.117-4.453c5.908-4.451 8.895-8.66 8.272-10.223-.118-.295-.368-.497-.753-.62-1.232-.392-3.48.075-6.211 1.193-2.253.922-4.84 2.29-7.463 3.993l-.357.235-.066.038-1.26.836.724-1.325c1.075-1.965 2.826-4.015 5.006-5.92a35.6 35.6 0 0 1 5.392-3.852 35 35 0 0 1 2.23-1.202 32 32 0 0 1 2.268-.996c3.625-1.248 5.736-1.983 9.271-1.937m-52.36.49c-.295 4.497.578 11.084 2.56 18.397.352 1.301.735 2.625 1.157 3.965q.393 1.24.809 2.443c-.163.239-.326.476-.48.714-2.472 3.783-3.917 7.358-4.282 10.467-1.045-3.494-1.831-7.32-2.277-11.378a69 69 0 0 1-.292-3.449c-.488-8.25.591-15.73 2.805-21.16ZM18.907 7.847H30.21q1.426 0 2.211.536.78.541.593 1.39l-1.327 5.986h-3.924l1.29-5.826h-9.825l-3.547 16.01-1.28 5.798h9.815l.01-.037 1.966-8.87H21.58l.442-2.002h8.535l-2.446 11.069c-.033.157-.091.3-.17.441-.201.367-.553.681-1.044.94q-1.02.536-2.447.535H13.327q-1.426.001-2.211-.535c-.521-.358-.72-.815-.593-1.381l4.902-22.128c.127-.565.522-1.03 1.205-1.39.024-.013.051-.016.075-.028.624-.312 1.356-.488 2.202-.508m17.447 0h14.012c.94 0 1.678.178 2.202.536q.791.541.602 1.39l-2.616 11.802q-.184.841-1.214 1.381c-.686.361-1.494.545-2.437.545H36.721l-1.967 8.86-.32 1.456h-3.84l.293-1.315zm19.357 0h3.84l-4.348 19.61-.95 4.284h9.184c.096.703.209 1.394.33 2.076H49.951l1.092-4.923zM39.732 9.933l-2.55 11.482h9.57l2.541-11.482zm-8.046 25.689q.057-.002.114 0c.445 0 .834.078 1.147.225.335.157.574.389.706.695.13.298.163.636.094 1.006l-.028.14h-1.101l.01-.131c.028-.258-.004-.462-.104-.601l-.047-.057a.6.6 0 0 0-.094-.075c-.154-.097-.395-.15-.706-.15q-.616 0-.931.216c-.205.141-.335.3-.377.489-.042.192.027.293.075.347l.01.01c.06.052.273.173.931.329.597.144.992.273 1.214.385.338.171.573.393.697.667.123.27.15.587.075.93a2.1 2.1 0 0 1-.499.93 2.5 2.5 0 0 1-.95.677c-.38.156-.796.244-1.223.244-.542 0-.978-.082-1.318-.244a1.52 1.52 0 0 1-.762-.78c-.145-.337-.176-.72-.094-1.137l.028-.132h1.082l-.01.132c-.026.25 0 .45.067.601.063.145.183.264.376.357.205.1.46.15.753.15q.393-.002.715-.121.316-.113.499-.301a.83.83 0 0 0 .216-.404q.047-.194-.028-.329c-.057-.096-.17-.182-.348-.254l-.922-.272c-.515-.13-.862-.253-1.064-.376-.274-.163-.471-.37-.574-.62-.102-.247-.113-.52-.047-.818.07-.318.223-.622.461-.892a2.3 2.3 0 0 1 .922-.63 3.2 3.2 0 0 1 1.035-.206m9.881.018c.06-.005.116 0 .179 0l.678.076.226.018-.33.836-.066.132-.517-.047q-.229-.002-.339.075l-.019.02a.3.3 0 0 0-.038.037.9.9 0 0 0-.14.357l-.038.15h.809l-.207.93h-.79l-.8 3.58h-1.092l.8-3.58h-.63l.207-.93h.62c.03-.13.076-.291.076-.291.066-.301.135-.517.226-.667a1.4 1.4 0 0 1 .517-.508c.181-.105.41-.168.668-.188m2.607.047-.358 1.607h.706l-.207.93h-.706c-.057.259-.508 2.265-.508 2.265s-.038.24-.038.31v.019h.01l.113.009.517-.038-.056.837.01.15-.744.084c-.295 0-.511-.048-.668-.15a.67.67 0 0 1-.301-.432c-.006-.033-.019-.081-.019-.15 0-.136.026-.365.113-.762l.48-2.142H42l.207-.93h.518l.216-.958.875-.461zm-34.677.038h4.235l-.236 1.052H10.4l-.31 1.39h2.682l-.236 1.053H9.855c-.057.262-.574 2.584-.574 2.584H8.142l1.355-6.08Zm5.675 1.484c.042-.005.088 0 .131 0 .271 0 .522.083.763.254l.15.103-.583.959-.16-.113a.7.7 0 0 0-.377-.112.6.6 0 0 0-.329.112.83.83 0 0 0-.282.31 3 3 0 0 0-.283.77l-.508 2.312h-1.092l1.008-4.51h1.016l-.047.188c.048-.036.099-.086.14-.113q.222-.13.453-.16m3.236 0c.066-.005.131 0 .198 0 .614 0 1.08.215 1.384.64.19.273.291.611.291 1.014q0 .333-.084.723l-.085.33h-3.068c-.006.062-.01.13-.01.187q-.001.353.151.555a.7.7 0 0 0 .17.169.84.84 0 0 0 .46.122c.223 0 .42-.061.603-.179a1.6 1.6 0 0 0 .49-.535h1.166l-.103.225a2.6 2.6 0 0 1-.922 1.053 2.5 2.5 0 0 1-1.365.385c-.666 0-1.16-.215-1.468-.639-.304-.415-.37-.989-.207-1.71.163-.734.487-1.32.96-1.729q.636-.55 1.44-.61Zm4.903 0c.066-.005.13 0 .198 0 .614 0 1.08.215 1.383.64.19.273.292.611.292 1.014q.001.329-.085.714l-.084.338h-3.068l-.01.123c-.002.015.002.04 0 .056v.01c0 .044.007.089.01.13.015.172.06.316.141.424.015.02.03.047.047.066.138.147.333.225.583.225q.333-.001.603-.179a1.6 1.6 0 0 0 .49-.535h1.175l-.113.225a2.6 2.6 0 0 1-.922 1.053 2.5 2.5 0 0 1-1.364.385c-.666 0-1.161-.215-1.468-.639-.199-.27-.292-.615-.292-1.024a3.4 3.4 0 0 1 .085-.686c.163-.73.477-1.32.95-1.729a2.46 2.46 0 0 1 1.45-.61Zm13.353 0c.068-.005.13 0 .198 0 .627 0 1.108.212 1.421.63q.466.627.226 1.691c-.123.553-.302 1-.546 1.325a2.6 2.6 0 0 1-.922.77c-.364.18-.75.273-1.139.273-.638 0-1.113-.218-1.42-.639-.2-.267-.301-.612-.301-1.024 0-.223.024-.46.084-.724.18-.806.55-1.42 1.092-1.813a2.55 2.55 0 0 1 1.307-.489m16.535 0c.079-.004.153 0 .235 0 .38 0 .677.039.903.132.241.096.412.232.508.395.094.153.141.341.141.573l-.112.686-.207.93c-.178.794-.217 1.091-.226 1.203q-.016.227.047.432l.075.244h-1.11l-.047-.141c-.018-.066-.013-.15-.02-.226-.21.13-.421.245-.61.31-.28.097-.572.15-.867.15-.511 0-.89-.132-1.12-.394a1 1 0 0 1-.254-.695q.001-.152.038-.32c.051-.228.144-.44.292-.629a1.8 1.8 0 0 1 .508-.451 2.3 2.3 0 0 1 .612-.244l.668-.113c.515-.06.9-.135 1.176-.216l.019-.066c.043-.193.038-.339-.01-.413-.003-.005-.015-.015-.019-.019-.01-.01-.025-.028-.037-.038-.113-.089-.306-.131-.565-.131-.292 0-.508.048-.658.14q-.223.142-.405.508h-1.139l.104-.226a2.4 2.4 0 0 1 .499-.77 2.1 2.1 0 0 1 .79-.46 3 3 0 0 1 .79-.15Zm4.77 0c.043-.005.09 0 .132 0q.41-.001.772.254l.141.103-.583.959-.16-.113a.67.67 0 0 0-.367-.112.6.6 0 0 0-.34.112.83.83 0 0 0-.272.31 3 3 0 0 0-.282.77l-.518 2.312h-1.091l1.006-4.51h1.017s-.026.137-.038.188c.048-.036.096-.086.141-.113q.215-.13.442-.16m3.228 0c.066-.005.13 0 .198 0 .614 0 1.082.215 1.383.64q.29.41.292 1.014c0 .223-.037.462-.094.723l-.075.33h-3.068c-.006.062-.019.13-.019.187q0 .353.15.555l.057.066.038.037c.134.122.318.188.546.188.222 0 .418-.061.602-.179q.262-.166.49-.535h1.175l-.112.225a2.6 2.6 0 0 1-.923 1.053c-.391.25-.85.385-1.364.385q-.999-.002-1.459-.639c-.304-.415-.376-.989-.217-1.71.163-.734.478-1.32.951-1.729.427-.367.915-.57 1.45-.61Zm-16.477.085h1.12l.14 2.715c.046-.096.081-.176.086-.187l1.232-2.528h1.026l.094 2.66 1.402-2.66h1.11l-2.446 4.51h-1.007l-.103-2.584-1.262 2.584h-1.035zm-26.293.855q-.387.015-.715.282a1.4 1.4 0 0 0-.385.536h1.853c.003-.033.01-.074.01-.104a.8.8 0 0 0-.085-.394c-.133-.217-.329-.32-.62-.32zm4.903 0q-.387.015-.715.282c-.175.138-.29.328-.386.536h1.854c.003-.033.01-.074.01-.104q0-.258-.085-.394a1 1 0 0 0-.094-.123q-.188-.196-.527-.197zm37.924 0a1.22 1.22 0 0 0-.744.282c-.171.138-.29.328-.386.536h1.845c.003-.033.01-.074.01-.104q0-.258-.085-.394c-.13-.214-.33-.317-.621-.32h-.02Zm-24.655.019a1.25 1.25 0 0 0-.697.338c-.259.235-.446.603-.555 1.09-.045.205-.066.38-.066.536q0 .318.123.507c.021.032.05.067.075.094q.202.215.555.216c.304 0 .572-.113.828-.348.26-.237.444-.61.555-1.108.103-.457.088-.799-.056-1.015-.139-.21-.34-.31-.621-.31-.047 0-.095-.006-.141 0m17.004 1.644c-.256.07-.543.128-.922.179a3 3 0 0 0-.602.131.7.7 0 0 0-.255.179.56.56 0 0 0-.131.244 1 1 0 0 0-.01.103v.038l.01.047.01.019q.003.014.009.028l.018.028.029.038c.075.084.225.122.442.122.238 0 .467-.045.678-.15a1.3 1.3 0 0 0 .498-.433c.09-.126.163-.32.226-.573M116.805 63l.813-3.434c.34-1.53 1.19-2.58 1.952-2.58.548 0 .698.4.671.924a6 6 0 0 1-.138.874L119.097 63h2.168l.813-3.449c.373-1.578 1.174-2.565 1.921-2.565.515 0 .729.367.705.89a5 5 0 0 1-.157.942L123.572 63h2.183l1.051-4.453c.081-.4.174-1.022.189-1.341.067-1.323-.581-2.024-1.749-2.024-1 0-1.973.451-2.71 1.401-.027-.685-.518-1.4-1.735-1.4-.985 0-1.924.444-2.677 1.452h-.03l.202-1.152h-1.934c-.126.644-.28 1.422-.514 2.33L114.637 63zm-7.573 0c2.62 0 4.64-1.982 4.782-4.679.087-1.786-1.027-3.139-3.084-3.139-2.716 0-4.664 2.195-4.8 4.847-.093 1.93 1.153 2.97 3.102 2.97Zm.352-1.804c-.765 0-1.186-.487-1.141-1.215.06-1.212.81-2.995 2.102-2.995.891 0 1.165.683 1.129 1.354-.066 1.322-.873 2.856-2.09 2.856m-5.474-9.32-.847 3.415c-.307-.127-.707-.109-1.02-.109-2.885 0-4.927 2.466-5.063 5.136C97.09 62.2 98.096 63 99.39 63c.907 0 1.862-.4 2.585-1.434h.03L101.833 63h2.042c.093-.902.289-1.976.509-2.956l1.954-8.169zm-1.759 7.341c-.352 1.483-1.184 1.979-1.84 1.979-.653 0-1.018-.454-.973-1.263.076-1.497 1.106-2.947 2.446-2.947.376 0 .698.058.876.142l-.509 2.09Zm-7.167 1.753c-.623.304-1.334.226-2.16.226-.656 0-1.158-.114-1.435-.337-.145-.244-.208-.622-.196-.866 3.053.081 4.975-.622 5.074-2.547.072-1.452-.99-2.264-2.536-2.264-2.761 0-4.568 2.43-4.685 4.769-.1 2.042.96 3.049 3.144 3.049.843 0 1.957-.096 2.87-.37zm-.822-3.523c-.036.715-.921.757-2.668.742.193-.628.828-1.203 1.873-1.203.515 0 .813.196.795.46Zm-7.16 3.523c-.624.304-1.335.226-2.163.226-.654 0-1.16-.114-1.436-.337-.145-.244-.205-.622-.193-.866 3.05.081 4.975-.622 5.07-2.547.073-1.452-.99-2.264-2.535-2.264-2.758 0-4.565 2.43-4.682 4.769-.103 2.042.96 3.049 3.144 3.049.84 0 1.957-.096 2.866-.37zm-.826-3.523c-.036.715-.922.757-2.665.742.19-.628.828-1.203 1.873-1.203.515 0 .81.196.792.46ZM77.21 63l.674-2.827c.356-1.53 1.105-2.886 2.524-2.886.126 0 .25.063.343.078l.548-2.168c-.127 0-.265-.015-.422-.015-1.044 0-1.92.734-2.505 1.786h-.06c.087-.514.162-1 .22-1.485h-1.937c-.108.626-.283 1.85-.545 2.953L74.948 63zm-10.076 0h2.246l1.012-4.21h3.647l.47-1.804h-3.665l.608-2.706h3.9l.47-2.104h-6.159L67.133 63Zm-9.666 0 .794-3.386c.413-1.722 1.301-2.327 2.033-2.327.578 0 .747.247.72.605-.015.288-.06.592-.12.862L59.882 63h2.246l1.066-4.453c.081-.385.172-.96.19-1.308.066-1.356-.611-1.85-1.858-1.85-1 0-1.973.464-2.74 1.468h-.03l.204-1.374h-1.98c-.13.644-.295 1.422-.53 2.33L55.22 63h2.247Zm-4.307 0 1.822-7.517h-2.231L50.918 63zm1.045-8.419c.765 0 1.446-.631 1.488-1.714.036-.733-.44-.992-1.141-.992-.732 0-1.4.475-1.44 1.185-.036.715.44 1.521 1.093 1.521m-13.06 8.064c.434.337 1.343.34 2.292.355 2.026.015 3.556-.87 3.647-2.493.05-1.082-.79-1.723-1.611-2.152-.594-.286-.892-.56-.877-.878.021-.43.425-.49 1.018-.49.669 0 1.205.08 1.512.14l.608-1.629c-.346-.207-1.039-.316-1.927-.316-1.967 0-3.406 1.038-3.487 2.613-.048.974.653 1.63 1.502 2.075.687.352.922.622.904 1.004-.021.385-.365.322-.988.322a14 14 0 0 1-1.97-.163zM39.674 63c.018-.953.247-2.45.485-3.434l.966-4.083c-.614-.207-1.572-.3-2.493-.3-3.74 0-5.595 2.766-5.725 5.357-.08 1.627.801 2.46 2.175 2.46.888 0 1.89-.43 2.67-1.723h.034c-.06.622-.133 1.227-.172 1.723zm-1.545-4.294c-.44 1.912-1.337 2.49-2.005 2.49-.624 0-.895-.442-.859-1.086.072-1.452 1.223-3.124 2.674-3.124.235 0 .419-.042.59-.084zM28.05 60.97c-.623.304-1.334.226-2.159.226-.656 0-1.16-.114-1.436-.337-.145-.244-.208-.622-.196-.866 3.053.081 4.975-.622 5.074-2.547.072-1.452-.99-2.264-2.535-2.264-2.762 0-4.569 2.43-4.686 4.769-.1 2.042.96 3.049 3.144 3.049.843 0 1.957-.096 2.87-.37zm-.822-3.523c-.036.715-.921.757-2.668.742.193-.628.828-1.203 1.873-1.203.515 0 .813.196.795.46Zm-7.16 3.523c-.624.304-1.335.226-2.163.226-.653 0-1.16-.114-1.436-.337-.145-.244-.205-.622-.193-.866 3.05.081 4.975-.622 5.071-2.547.072-1.452-.99-2.264-2.535-2.264-2.759 0-4.566 2.43-4.683 4.769-.102 2.042.958 3.049 3.144 3.049.84 0 1.954-.096 2.867-.37zm-.826-3.523c-.036.715-.921.757-2.665.742.19-.628.828-1.203 1.873-1.203.515 0 .81.196.792.46ZM10.076 63l.674-2.827c.356-1.53 1.105-2.886 2.524-2.886.126 0 .25.063.343.078l.548-2.168c-.126 0-.265-.015-.421-.015-1.045 0-1.922.734-2.506 1.786h-.06c.087-.514.162-1 .22-1.485H9.46c-.11.626-.283 1.85-.545 2.953L7.814 63zM0 63h2.246l1.01-4.21h3.649l.47-1.804H3.71l.608-2.706h3.9l.47-2.104H2.529z"/></svg>