<?xml version="1.0" encoding="UTF-8"?>
<svg version="1.1" xmlns="http://www.w3.org/2000/svg" width="3264" height="710">
<path d="M0 0 C43.83419689 0 43.83419689 0 63.33984375 19.27734375 C64.87514562 20.82801145 66.40779711 22.38130875 67.9375 23.9375 C74.21483013 30.33083156 74.21483013 30.33083156 80.84765625 36.34765625 C86.90326826 41.55114696 92.40579219 47.35016077 98.00927734 53.02978516 C104.8161357 59.963662 104.8161357 59.963662 112 66.5 C118.01444996 71.6384993 123.45752246 77.40259394 129.00927734 83.02978516 C135.76663248 89.91992406 135.76663248 89.91992406 142.90625 96.40625 C149.56624541 102.09627685 155.57495278 108.52242254 161.72753906 114.74804688 C167.32874175 120.40975147 172.88848467 126.01442563 178.95703125 131.1796875 C184.21464106 135.86428821 189.06500537 141.01833123 194.00927734 146.02978516 C200.8161357 152.963662 200.8161357 152.963662 208 159.5 C214.01444996 164.6384993 219.45752246 170.40259394 225.00927734 176.02978516 C231.8161357 182.963662 231.8161357 182.963662 239 189.5 C245.01444996 194.6384993 250.45752246 200.40259394 256.00927734 206.02978516 C262.96398004 213.0957291 262.96398004 213.0957291 270.28125 219.78125 C274.01372004 223.01187533 277.50942178 226.50942178 281 230 C281.33 155.42 281.66 80.84 282 4 C324.57 4 367.14 4 411 4 C411 162.4 411 320.8 411 484 C396.81 484 382.62 484 368 484 C363.71 479.71 359.42 475.42 355 471 C352.07991037 468.44364665 352.07991037 468.44364665 349.13671875 465.9140625 C343.25520623 460.64543154 337.82096205 454.86632112 332.27246094 449.25195312 C326.69146712 443.61067569 321.15191709 438.02926538 315.10546875 432.8828125 C309.43312116 427.81032356 304.19145232 422.23720062 298.84521484 416.82470703 C293.40634068 411.32452251 287.9833878 405.89017389 282.09179688 400.86914062 C276.62270803 395.98219569 271.5693217 390.61559068 266.41796875 385.39746094 C264.86414002 383.82531785 263.30713323 382.25636916 261.75 380.6875 C260.38101563 379.30111328 260.38101563 379.30111328 258.984375 377.88671875 C256.7749243 375.701154 254.47558698 373.65349347 252.12304688 371.62304688 C247.98823642 368.03899063 244.12467871 364.23583868 240.28125 360.34375 C239.22798523 359.2848053 239.22798523 359.2848053 238.15344238 358.20446777 C235.18616234 355.22102625 232.22494637 352.2315929 229.26318359 349.24267578 C227.08381535 347.04509421 224.90135053 344.85062062 222.71875 342.65625 C222.063302 341.99250366 221.407854 341.32875732 220.73254395 340.64489746 C216.91128783 336.80374024 212.96853451 333.18216966 208.86730957 329.64245605 C206.20912964 327.3043629 203.73790842 324.83203438 201.25 322.3125 C200.74758789 321.80630127 200.24517578 321.30010254 199.72753906 320.77856445 C197.6204205 318.65540351 195.51945787 316.52619158 193.41796875 314.39746094 C186.42045297 307.25743361 186.42045297 307.25743361 179.03125 300.53125 C172.59623969 295.04021848 166.7859377 288.83905348 160.84521484 282.82470703 C153.64067071 275.46379775 153.64067071 275.46379775 146.03125 268.53125 C140.07999669 263.31813663 134.5943707 257.5943707 129 252 C128.505 364.86 128.505 364.86 128 480 C85.76 480 43.52 480 0 480 C0 321.6 0 163.2 0 0 Z " fill="#A9A9A9" transform="translate(1593,99)"/>
<path d="M0 0 C26.01883781 -0.09384864 52.0376499 -0.1641764 78.05662346 -0.20724869 C90.14034593 -0.22778817 102.22396265 -0.25574209 114.30761719 -0.30175781 C124.85174867 -0.34189141 135.39580348 -0.36749522 145.94000924 -0.37635398 C151.51218492 -0.38152426 157.08414144 -0.39349195 162.65624619 -0.42292023 C218.61430188 -0.70660526 269.99956234 8.22012929 312 48 C312.7420166 48.68521729 312.7420166 48.68521729 313.49902344 49.38427734 C339.41622428 73.41151615 356.65428051 108.51048653 358.12646484 144.05322266 C359.09834337 186.11637309 347.27164927 223.00648901 318 254 C316.35305515 255.68615782 314.68873879 257.35570171 313 259 C312.55011719 259.495 312.10023438 259.99 311.63671875 260.5 C302.25987451 270.55160474 289.96631966 277.48944918 278 284 C281.43421883 290.44013059 285.2304588 296.51874602 289.33984375 302.546875 C289.94325089 303.43876526 290.54665802 304.33065552 291.16835022 305.24957275 C293.08790852 308.08543309 295.01247864 310.91784596 296.9375 313.75 C299.44791036 317.45224754 301.95635363 321.15582622 304.46484375 324.859375 C305.09145401 325.78369324 305.71806427 326.70801147 306.36366272 327.66033936 C311.22117142 334.83159328 316.03151412 342.03336358 320.82879639 349.24499512 C324.7826637 355.18477045 328.76224725 361.10646833 332.76171875 367.015625 C333.32126755 367.84243271 333.88081635 368.66924042 334.45732117 369.52110291 C335.60687114 371.219592 336.75643286 372.91807313 337.90600586 374.61654663 C351.16600136 394.21783468 364.25164178 413.92839289 377.21974182 433.72380066 C380.40344826 438.57978334 383.6048351 443.42346196 386.8236084 448.25627136 C388.83242967 451.27280906 390.83563848 454.29305195 392.83837891 457.31362915 C393.77210008 458.71847014 394.70858282 460.12147996 395.64794922 461.52255249 C396.92355996 463.42571775 398.18940729 465.33501918 399.453125 467.24609375 C400.16629883 468.31529053 400.87947266 469.3844873 401.61425781 470.48608398 C402.07155273 471.31567627 402.52884766 472.14526855 403 473 C402.67 473.66 402.34 474.32 402 475 C382.807047 475.21027842 363.61432783 475.36896653 344.42046165 475.46630955 C335.50826885 475.51271009 326.5967919 475.57596363 317.68505859 475.67895508 C309.91717033 475.76868447 302.14980045 475.82672914 294.38140833 475.84679645 C290.26807837 475.85852687 286.15623131 475.88607166 282.04337692 475.95157051 C278.1703868 476.01274864 274.29948714 476.03148924 270.42605972 476.01796913 C269.00618873 476.02044153 267.58624657 476.0383001 266.16679382 476.07284927 C255.43976758 476.32109542 255.43976758 476.32109542 251.85631752 473.03300953 C250.30838912 470.74402204 249.12696386 468.51781143 248 466 C247.37432129 465.01136963 246.74864258 464.02273926 246.10400391 463.00415039 C245.56694824 462.12750732 245.02989258 461.25086426 244.4765625 460.34765625 C243.85628174 459.33727295 243.23600098 458.32688965 242.59692383 457.28588867 C241.94618896 456.22217041 241.2954541 455.15845215 240.625 454.0625 C239.92555992 452.92216806 239.22593018 451.78195243 238.52612305 450.6418457 C237.07477332 448.27698739 235.62423057 445.91163717 234.17431641 443.54589844 C230.72701287 437.92235343 227.26962359 432.3050114 223.8125 426.6875 C223.14557129 425.603479 222.47864258 424.51945801 221.79150391 423.40258789 C217.70460484 416.76200342 213.60722407 410.12802966 209.5 403.5 C199.58440952 387.49591611 189.70401208 371.47055551 179.9375 355.375 C174.61380717 346.60527786 169.20345558 337.89296719 163.75244141 329.2019043 C158.44356297 320.73088826 153.19858424 312.22159476 147.98095703 303.6940918 C142.07847581 294.06822938 136.03184264 284.55041752 130 275 C129.67 341 129.34 407 129 475 C86.76 475 44.52 475 1 475 C-0.53257361 471.93485279 -0.13477041 468.72969901 -0.12304783 465.36688805 C-0.12420167 464.5659796 -0.12535552 463.76507116 -0.12654433 462.93989277 C-0.12921369 460.22743543 -0.1246862 457.51503618 -0.12025452 454.80258179 C-0.12069015 452.84982496 -0.12156492 450.89706819 -0.12284368 448.94431174 C-0.12509013 443.55587862 -0.12106531 438.16746522 -0.11606562 432.77903461 C-0.11176345 426.97669791 -0.11320738 421.17436239 -0.1139679 415.37202454 C-0.11449328 405.31163645 -0.11134498 395.25125483 -0.10573006 385.19086838 C-0.097617 370.64508054 -0.09499669 356.0992957 -0.09374207 341.55350585 C-0.09164023 317.95624173 -0.08489889 294.35898097 -0.07543945 270.76171875 C-0.06625887 247.83365904 -0.05917337 224.90560024 -0.05493164 201.97753906 C-0.05473435 200.91790097 -0.05473435 200.91790097 -0.05453308 199.83685605 C-0.05321459 192.74280713 -0.05193877 185.64875821 -0.05069422 178.55470928 C-0.04815783 164.10260439 -0.04533658 149.65049957 -0.04234314 135.19839478 C-0.04220585 134.53387309 -0.04206856 133.86935141 -0.04192711 133.18469271 C-0.03272248 88.78979373 -0.01685606 44.39489665 0 0 Z M128 114 C128 144.69 128 175.38 128 207 C136.29125 207.20625 144.5825 207.4125 153.125 207.625 C155.71230957 207.69541504 158.29961914 207.76583008 160.96533203 207.83837891 C181.81311299 208.33782174 199.90235821 207.9745505 216 193 C224.95435883 184.34083981 228.93295098 173.397085 229.3125 161.125 C229.05154666 149.01369499 224.6522344 137.68115313 216.375 128.75 C202.2033842 115.57905173 186.08485796 113.81432686 167.6484375 113.90234375 C166.13020386 113.90385437 166.13020386 113.90385437 164.58129883 113.90539551 C160.84585415 113.91057779 157.11042578 113.92453853 153.375 113.9375 C145.00125 113.958125 136.6275 113.97875 128 114 Z " fill="#A9A9A9" transform="translate(1148,104)"/>
<path d="M0 0 C102.3 0 204.6 0 310 0 C310 38.94 310 77.88 310 118 C249.61 118 189.22 118 127 118 C127 139.12 127 160.24 127 182 C176.83 182 226.66 182 278 182 C278 217.31 278 252.62 278 289 C228.17 289 178.34 289 127 289 C127 310.78 127 332.56 127 355 C187.39 355 247.78 355 310 355 C310 394.6 310 434.2 310 475 C270.65224747 475.02202571 231.30450073 475.04049744 191.95674381 475.05106533 C187.31645875 475.05231611 182.67617371 475.05361042 178.03588867 475.05493164 C177.11205102 475.05519395 176.18821336 475.05545626 175.23638063 475.05572652 C160.25734563 475.06008354 145.27831445 475.06797127 130.29928172 475.0771528 C114.9412786 475.08648844 99.58327749 475.09205542 84.22527164 475.09408849 C74.74065147 475.09546391 65.25604209 475.09981548 55.77142524 475.10791647 C49.27662758 475.11318283 42.78183553 475.11480455 36.28703589 475.11350138 C32.53408577 475.11285782 28.78115457 475.11387744 25.02820778 475.11920547 C20.96915576 475.12492635 16.91014457 475.1230012 12.85108948 475.12025452 C11.0520042 475.12462378 11.0520042 475.12462378 9.21657377 475.12908131 C8.13821349 475.12709026 7.05985321 475.12509921 5.94881535 475.12304783 C5.01052641 475.12342755 4.07223747 475.12380727 3.10551554 475.1241985 C1 475 1 475 0 474 C-0.09883799 471.48246541 -0.13177658 468.99236168 -0.12304783 466.4743185 C-0.12420167 465.67287553 -0.12535552 464.87143256 -0.12654433 464.04570344 C-0.12921839 461.32540624 -0.12468238 458.60516671 -0.12025452 455.88487244 C-0.12069006 453.92885387 -0.12156465 451.97283535 -0.12284368 450.01681715 C-0.12509201 444.61472314 -0.12106277 439.21264875 -0.11606562 433.81055725 C-0.11176612 427.99525124 -0.11320719 422.17994643 -0.1139679 416.36463928 C-0.11449345 406.28022434 -0.11134337 396.19581584 -0.10573006 386.11140251 C-0.0976193 371.53084973 -0.09499693 356.95029944 -0.09374207 342.36974473 C-0.09163987 318.71646544 -0.08489754 295.06318951 -0.07543945 271.40991211 C-0.06625981 248.42651385 -0.05919076 225.44311652 -0.05493164 202.4597168 C-0.054661 201.01524363 -0.05439029 199.57077046 -0.05411953 198.1262973 C-0.05203405 186.94332204 -0.05008326 175.76034676 -0.04816496 164.57737148 C-0.03872322 109.7182445 -0.01860683 54.85912612 0 0 Z " fill="#A9A9A9" transform="translate(771,104)"/>
<path d="M0 0 C11.91024271 10.81932229 24.93106044 25.32303894 28.71240234 41.4987793 C26.3597116 45.18466147 23.54794116 47.66558347 20.23583984 50.47143555 C14.61769191 55.36368637 9.44090245 60.69923519 4.21240234 65.9987793 C-1.44856396 71.73666588 -7.08541862 77.41275028 -13.21875 82.65258789 C-17.79807253 86.73906853 -22.04207051 91.19207307 -26.35009766 95.5612793 C-32.14431454 101.437476 -37.90628554 107.25034922 -44.28759766 112.4987793 C-47.69380839 110.91643521 -49.20794395 109.5426761 -51.35009766 106.4362793 C-64.120912 89.62406801 -85.72007147 81.17727504 -106.10009766 78.1862793 C-121.87525808 76.4500195 -137.76575048 77.18060606 -151.10009766 86.6862793 C-156.04677631 90.7997408 -159.50176355 95.38016659 -160.72509766 101.79174805 C-161.0851614 108.32915548 -158.98713435 113.34816321 -154.76806641 118.2722168 C-144.36957819 128.28557582 -129.37492597 133.30307893 -116.11767578 138.31201172 C-111.58643887 140.02545894 -107.06852292 141.77343397 -102.54931641 143.51831055 C-101.66029633 143.86080841 -100.77127625 144.20330627 -99.85531616 144.55618286 C-88.54614174 148.9243267 -77.38040729 153.60641698 -66.28759766 158.4987793 C-65.09287842 159.0227832 -65.09287842 159.0227832 -63.87402344 159.55737305 C-20.27737476 178.83780103 20.10455038 209.3704059 38.24755859 254.60253906 C50.48943557 286.43372608 49.42399314 323.40000457 35.91259766 354.61132812 C24.48333888 380.05005575 6.11978718 401.29839849 -17.28759766 416.4987793 C-17.92568359 416.91675781 -18.56376953 417.33473633 -19.22119141 417.76538086 C-65.4120928 447.56079894 -123.80840307 454.54219642 -177.28759766 445.4987793 C-178.26132324 445.33780762 -179.23504883 445.17683594 -180.23828125 445.01098633 C-214.89451273 439.07431742 -249.6731449 426.012138 -276.28759766 402.4987793 C-276.77711914 402.07483887 -277.26664063 401.65089844 -277.77099609 401.21411133 C-289.09129941 391.39049998 -297.84591962 380.50833154 -305.28759766 367.4987793 C-305.71169922 366.81686523 -306.13580078 366.13495117 -306.57275391 365.43237305 C-307.5663221 362.74485253 -307.08546549 361.23400443 -306.28759766 358.4987793 C-304.74058533 356.46401978 -304.74058533 356.46401978 -302.72094727 354.4621582 C-301.966035 353.70432037 -301.21112274 352.94648254 -300.43333435 352.16567993 C-299.61051468 351.36036835 -298.78769501 350.55505676 -297.93994141 349.7253418 C-296.67205528 348.46238785 -296.67205528 348.46238785 -295.3785553 347.17391968 C-292.66994675 344.48107 -289.94750968 341.80266543 -287.22509766 339.1237793 C-285.41759633 337.32777009 -283.61094566 335.53090435 -281.80517578 333.7331543 C-280.05919571 332.00061247 -278.31247403 330.26881762 -276.56494141 328.5378418 C-275.75629135 327.73657867 -274.9476413 326.93531555 -274.11448669 326.10977173 C-269.90748141 321.97226384 -265.61682626 318.00200261 -261.14930725 314.14849854 C-258.2043353 311.53886656 -255.47626706 308.73473578 -252.74072266 305.90893555 C-251.55495941 304.70082647 -250.36874898 303.49315617 -249.18212891 302.28588867 C-247.34524856 300.41167738 -245.51170964 298.53456202 -243.68554688 296.64990234 C-241.90042838 294.81052421 -240.10304522 292.98391247 -238.30322266 291.15893555 C-237.75837219 290.59030289 -237.21352173 290.02167023 -236.65216064 289.43580627 C-235.09326172 287.86621094 -235.09326172 287.86621094 -232.28759766 285.4987793 C-230.96759766 285.4987793 -229.64759766 285.4987793 -228.28759766 285.4987793 C-226.54150391 287.2565918 -226.54150391 287.2565918 -224.85009766 289.6237793 C-207.27971421 313.83911055 -180.11373106 325.62978079 -151.28759766 330.4987793 C-147.94403984 331.01019752 -144.66625029 331.3624477 -141.28759766 331.4987793 C-140.47033203 331.53874023 -139.65306641 331.57870117 -138.81103516 331.61987305 C-122.62712776 332.02566424 -102.82919662 329.71020867 -90.28759766 318.4987793 C-85.72067455 313.32513935 -83.88988226 308.71407477 -84.02197266 301.8894043 C-85.01014262 292.99587459 -92.30109745 285.50499036 -98.9765625 280.1418457 C-124.28705964 261.06913516 -154.73544887 248.71701085 -183.640625 236.17993164 C-196.20796523 230.70195047 -208.44961563 224.69199733 -219.91259766 217.1237793 C-220.61715088 216.66245605 -221.3217041 216.20113281 -222.04760742 215.72583008 C-252.63185867 195.45628106 -277.97759318 168.14255223 -286.28759766 131.4987793 C-293.5672791 95.37294462 -288.10083827 61.32577112 -268.18212891 30.2097168 C-262.36728934 21.96912579 -255.50524657 14.52649008 -248.28759766 7.4987793 C-247.84931641 7.01538086 -247.41103516 6.53198242 -246.95947266 6.03393555 C-189.43232648 -55.7060572 -68.44469446 -55.71636449 0 0 Z " fill="#A9A9A9" transform="translate(2363.28759765625,136.501220703125)"/>
</svg>
