<?xml version="1.0" encoding="UTF-8"?>
<svg version="1.1" xmlns="http://www.w3.org/2000/svg" width="3264" height="710">
<path d="M0 0 C217.21366354 0 217.21366354 0 240.375 7.6875 C241.43823486 8.0285376 242.50146973 8.3695752 243.59692383 8.72094727 C269.3444461 17.22243304 291.32792337 30.39127886 311 49 C311.88300781 49.81855469 312.76601562 50.63710937 313.67578125 51.48046875 C341.48252274 78.10729193 355.9322616 115.85940804 356.99609375 153.93359375 C357.36635959 188.93381363 344.65206065 222.50820613 322 249 C321.54866699 249.53109375 321.09733398 250.0621875 320.63232422 250.609375 C309.01365265 264.14146383 294.38384313 276.57233934 278 284 C277.34 284 276.68 284 276 284 C279.29229165 290.15051005 282.87306651 295.9837474 286.8125 301.73828125 C287.36981812 302.55967087 287.92713623 303.38106049 288.50134277 304.2273407 C289.70295361 305.99818294 290.90608438 307.76799461 292.1105957 309.53686523 C295.38530192 314.34758174 298.64652062 319.16740809 301.90625 323.98828125 C302.57974487 324.98425323 303.25323975 325.98022522 303.94714355 327.00637817 C310.88389046 337.28133859 317.69809273 347.63549935 324.5 358 C337.29285874 377.4848071 350.29021318 396.82647902 363.35900879 416.12702942 C366.61919725 420.94542524 369.85643351 425.77820719 373.07421875 430.625 C376.66901563 436.03864824 380.32583019 441.40703614 384.0078125 446.76171875 C385.53279928 448.98683162 387.0570556 451.21244297 388.58105469 453.43823242 C389.62527643 454.95948715 390.67256476 456.47864071 391.72265625 457.99584961 C393.26382362 460.22453098 394.79309342 462.46096461 396.3203125 464.69921875 C396.79203888 465.37522629 397.26376526 466.05123383 397.74978638 466.74772644 C400.08873996 470.19982697 401 471.71599355 401 476 C381.80699947 476.18691461 362.61418371 476.3279709 343.42046165 476.41449738 C334.50835107 476.45574192 325.59680611 476.51196752 316.68505859 476.60351562 C308.91717134 476.68327508 301.14969369 476.73487059 293.38140833 476.75270796 C289.26821535 476.76313464 285.15619414 476.78761978 281.04337692 476.84584045 C277.17050236 476.90021939 273.2992798 476.91687869 269.42605972 476.90486145 C268.00621301 476.9070591 266.58631005 476.92293205 265.16679382 476.9536438 C254.46665885 477.17375387 254.46665885 477.17375387 250.88153458 474.30461121 C249.31790706 472.26435379 248.15060455 470.29390148 247 468 C246.13709113 466.60428137 245.26692599 465.21299951 244.38671875 463.828125 C243.48285533 462.30452223 242.5833468 460.77833013 241.6875 459.25 C240.63619331 457.47870548 239.58406128 455.70790064 238.53125 453.9375 C237.96664063 452.98617188 237.40203125 452.03484375 236.8203125 451.0546875 C233.4718211 445.43554527 230.08119968 439.8419067 226.6875 434.25 C226.32678406 433.65534943 225.96606812 433.06069885 225.59442139 432.44802856 C219.9582293 423.16200145 214.2342886 413.93396171 208.45825195 404.73413086 C203.61148335 397.00570874 198.85526517 389.22518023 194.1237793 381.42578125 C189.79711848 374.29736528 185.4238643 367.19922989 181.02807617 360.11328125 C175.36510344 350.9831303 169.7365243 341.831948 164.109375 332.6796875 C161.39510293 328.2654511 158.67618223 323.85413459 155.953125 319.4453125 C155.27999268 318.35436279 154.60686035 317.26341309 153.91333008 316.1394043 C152.67479301 314.13231007 151.43521041 312.12586024 150.1940918 310.12036133 C145.47478155 302.46747793 140.8475718 294.76058948 136.22485352 287.04907227 C135.52228533 285.87751015 134.81969205 284.7059631 134.11707306 283.53443146 C132.41113575 280.68976853 130.70545184 277.844954 129 275 C128.99576806 276.02982467 128.99153612 277.05964933 128.98717594 278.12068081 C128.8841353 303.13997189 128.77540687 328.15923327 128.66066074 353.17847347 C128.60530383 365.2774196 128.55181785 377.37636866 128.50268555 389.4753418 C128.45987387 400.01668661 128.41360362 410.55800949 128.36312145 421.09932047 C128.33649613 426.68456848 128.31164254 432.26981206 128.29092598 437.85508537 C128.27139649 443.10561781 128.247264 448.35610841 128.21950912 453.60660362 C128.21011908 455.53963209 128.20245089 457.47266976 128.19658089 459.40571213 C128.18835275 462.03284516 128.17408568 464.65987574 128.15821838 467.28697205 C128.15724028 468.06224886 128.15626217 468.83752568 128.15525442 469.63629574 C128.11412121 474.88587879 128.11412121 474.88587879 127 476 C85.09 476 43.18 476 0 476 C0 318.92 0 161.84 0 0 Z M128 114 C128 145.02 128 176.04 128 208 C135.940625 208.20625 143.88125 208.4125 152.0625 208.625 C154.5362915 208.69541504 157.01008301 208.76583008 159.55883789 208.83837891 C179.57956492 209.3387112 197.61160285 209.3204867 213.5234375 195.44921875 C222.40802104 186.66272998 227.99382571 175.05408379 228.25 162.4375 C228.08272569 149.9290987 223.46615634 137.97605975 214.94921875 128.8125 C200.8490871 115.70135554 184.53702287 113.81055809 166.0859375 113.90234375 C165.11309814 113.90335083 164.14025879 113.90435791 163.13793945 113.90539551 C159.55028075 113.91057473 155.96263902 113.92453539 152.375 113.9375 C144.33125 113.958125 136.2875 113.97875 128 114 Z " fill="#A9A9A9" transform="translate(1498,100)"/>
<path d="M0 0 C20.79 0 41.58 0 63 0 C72.18327193 19.50352038 81.2449011 39.04914008 90.13719177 58.68626404 C93.69889224 66.54886855 97.28530141 74.40014686 100.875 82.25 C101.2050705 82.97192535 101.53514099 83.69385071 101.87521362 84.43765259 C107.42605594 96.57671218 112.99670237 108.70663702 118.57321167 120.83392334 C123.71083987 132.00692406 128.83039884 143.1880165 133.9375 154.375 C139.97172212 167.59225004 146.04968669 180.78889758 152.14523315 193.97796631 C157.45728519 205.47302408 162.74289001 216.97971606 168 228.5 C173.61584341 240.80559954 179.26443034 253.09567709 184.9375 265.375 C190.82523601 278.11917433 196.70361022 290.8675353 202.5625 303.625 C202.9112619 304.3843988 203.2600238 305.14379761 203.61935425 305.9262085 C205.37681274 309.75312019 207.13401996 313.58014719 208.89111328 317.40722656 C212.07147524 324.33397052 215.2540792 331.25968438 218.43649292 338.18548584 C220.20775176 342.04028263 221.97886877 345.89514458 223.75 349.75 C224.45833265 351.29166698 225.16666599 352.83333365 225.875 354.375 C247.12500003 400.62500006 247.12500003 400.62500006 248.18730164 402.93707275 C248.89629164 404.48016566 249.6052862 406.02325648 250.31428528 407.56634521 C252.0751086 411.39867339 253.83585526 415.23103674 255.59643555 419.06347656 C258.90313231 426.26129521 262.21061393 433.45875033 265.5206604 440.6550293 C267.0770493 444.03884898 268.63302265 447.42285966 270.18896484 450.80688477 C270.92785255 452.41358821 271.66694184 454.02019896 272.40625 455.62670898 C274.05758316 459.21509541 275.70713876 462.80425502 277.35009766 466.39648438 C278.34879314 468.57771334 279.35229113 470.75676421 280.36474609 472.93164062 C283 478.6657686 283 478.6657686 283 482 C236.8 482 190.6 482 143 482 C134.05448592 464.10897183 126.78052114 445.42755008 119 427 C61.25 426.67 3.5 426.34 -56 426 C-56.33 427.65 -56.66 429.3 -57 431 C-57.52316542 432.40813015 -58.09212288 433.79998094 -58.70239258 435.17260742 C-59.04977982 435.96080368 -59.39716705 436.74899994 -59.75508118 437.56108093 C-60.1310997 438.40072891 -60.50711823 439.24037689 -60.89453125 440.10546875 C-61.477472 441.4243383 -61.477472 441.4243383 -62.07218933 442.76985168 C-63.31422426 445.57786101 -64.56299843 448.3828062 -65.8125 451.1875 C-67.0501568 453.97482588 -68.28633671 456.76279321 -69.52067566 459.55158997 C-70.28762738 461.28342375 -71.05662252 463.01435469 -71.82807922 464.7441864 C-74.36232507 470.45375823 -76.6761455 476.19036375 -79 482 C-125.2 482 -171.4 482 -219 482 C-219.33 481.34 -219.66 480.68 -220 480 C-219.0222168 477.36254883 -219.0222168 477.36254883 -217.44921875 473.95703125 C-217.16412445 473.33411697 -216.87903015 472.7112027 -216.58529663 472.06941223 C-215.62683133 469.98025065 -214.65714991 467.89649126 -213.6875 465.8125 C-213.00573288 464.33218891 -212.32467613 462.85155047 -211.64428711 461.37060547 C-209.81473137 457.39349658 -207.97560065 453.42088615 -206.13439941 449.44915771 C-204.26949192 445.4228399 -202.41234155 441.39294942 -200.5546875 437.36328125 C-198.29453664 432.46193273 -196.03342099 427.56103687 -193.76855469 422.66186523 C-188.79902035 411.91130242 -183.85596714 401.14901758 -178.9375 390.375 C-173.49383858 378.45156019 -168.03673658 366.53443628 -162.5625 354.625 C-162.21034424 353.85881348 -161.85818848 353.09262695 -161.49536133 352.30322266 C-158.6398869 346.09078641 -155.78352975 339.87875613 -152.92712402 333.66674805 C-150.43016688 328.23635645 -147.9336046 322.80578353 -145.4375 317.375 C-144.90878296 316.22475342 -144.90878296 316.22475342 -144.36938477 315.05126953 C-138.92177684 303.19845174 -133.49565866 291.33593797 -128.07836914 279.46923828 C-122.35065026 266.92523628 -116.57411975 254.40413388 -110.78738403 241.88726807 C-105.6517155 230.77604845 -100.55286347 219.64910911 -95.5 208.5 C-89.69263555 195.68608957 -83.81553711 182.9054341 -77.91162109 170.13574219 C-72.57996318 158.60306049 -67.27409773 147.0591163 -62 135.5 C-56.34642886 123.10920073 -50.65307122 110.73731738 -44.9375 98.375 C-39.11398729 85.77881122 -33.33182906 73.16511958 -27.60507202 60.5246582 C-21.43945352 46.91864558 -15.17955083 33.35667652 -8.90039062 19.80273438 C-8.5295636 19.00139069 -8.15873657 18.200047 -7.77667236 17.37442017 C-7.08575967 15.88148861 -6.39405094 14.38892506 -5.70135498 12.89682007 C-5.23285126 11.88417587 -5.23285126 11.88417587 -4.75488281 10.85107422 C-4.48701965 10.27332245 -4.21915649 9.69557068 -3.94317627 9.10031128 C-2.58887271 6.08448154 -1.30228118 3.0386561 0 0 Z M31 225 C27.56168951 232.91631482 24.12432978 240.83304223 20.6875 248.75 C20.17222748 249.93694458 19.65695496 251.12388916 19.12606812 252.34680176 C11.04186614 270.9710109 2.9786341 289.60416934 -5.05786133 308.24902344 C-5.61771225 309.54718994 -5.61771225 309.54718994 -6.18887329 310.87158203 C-6.87215556 312.45602722 -7.55503989 314.04064412 -8.23739624 315.62548828 C-8.54408234 316.33656738 -8.85076843 317.04764648 -9.16674805 317.78027344 C-9.61031143 318.80936829 -9.61031143 318.80936829 -10.06283569 319.85925293 C-10.73730853 321.39993873 -11.42498548 322.93486855 -12.1210022 324.46594238 C-12.48817352 325.27414429 -12.85534485 326.08234619 -13.23364258 326.91503906 C-13.57116043 327.6491803 -13.90867828 328.38332153 -14.25642395 329.13970947 C-15.12371941 330.97562427 -15.12371941 330.97562427 -15 333 C15.69 333 46.38 333 78 333 C76.14495234 327.43485703 74.37697841 322.3106084 72.05078125 316.99609375 C71.76492157 316.33928619 71.47906189 315.68247864 71.18453979 315.00576782 C70.55974148 313.57101737 69.93325842 312.13699964 69.30526733 310.7036438 C67.54182903 306.67832524 65.79106586 302.64749305 64.0390625 298.6171875 C63.65294296 297.72973343 63.26682343 296.84227936 62.8690033 295.92793274 C59.45477847 288.07078302 56.07916419 280.19725813 52.7109375 272.3203125 C52.16686551 271.04832438 51.62279304 269.77633646 51.07872009 268.50434875 C48.9083297 263.42937494 46.73856079 258.35413754 44.57192993 253.27755737 C43.04330815 249.69595869 41.51190323 246.11555321 39.98046875 242.53515625 C39.29233597 240.9201976 39.29233597 240.9201976 38.59030151 239.27261353 C36.52170667 234.44035849 34.43132672 229.66141608 32 225 C31.67 225 31.34 225 31 225 Z " fill="#A9A9A9" transform="translate(990,94)"/>
<path d="M0 0 C117.15 0 234.3 0 355 0 C355 39.27 355 78.54 355 119 C317.71 119 280.42 119 242 119 C242 236.81 242 354.62 242 476 C199.76 476 157.52 476 114 476 C113 475 113 475 112.8758015 472.59311908 C112.87618122 471.5120553 112.87656094 470.43099152 112.87695217 469.31716824 C112.87496112 468.07508836 112.87297007 466.83300849 112.87091869 465.55328983 C112.87377228 464.15706262 112.87671789 462.7608356 112.87974548 461.36460876 C112.87930991 459.89531659 112.87843526 458.42602449 112.87715632 456.95673281 C112.87490861 452.90002206 112.87893639 448.84333745 112.88393438 444.78663003 C112.88823476 440.4191903 112.88679275 436.05175216 112.8860321 431.68431091 C112.88550661 424.11104416 112.8886561 416.537786 112.89426994 408.96452141 C112.90238146 398.01472092 112.9049998 387.0649246 112.90625793 376.11512143 C112.908449 358.35172899 112.91511058 340.58834113 112.92456055 322.82495117 C112.93373325 305.56486026 112.94081477 288.30477059 112.94506836 271.04467773 C112.94533108 269.98157003 112.94559381 268.91846233 112.94586449 267.82313924 C112.94716949 262.49008052 112.9484332 257.15702179 112.94967639 251.82396305 C112.96005072 207.54930463 112.97848994 163.27465468 113 119 C75.71 119 38.42 119 0 119 C0 79.73 0 40.46 0 0 Z " fill="#A9A9A9" transform="translate(2095,100)"/>
</svg>
