<?xml version="1.0" encoding="UTF-8"?>
<svg version="1.1" xmlns="http://www.w3.org/2000/svg" width="3264" height="710">
<path d="M0 0 C25.41 0 50.82 0 77 0 C77 24.09 77 48.18 77 73 C101.09 73 125.18 73 150 73 C150 97.42 150 121.84 150 147 C173.76 147 197.52 147 222 147 C221.98839844 141.74191406 221.97679688 136.48382813 221.96484375 131.06640625 C221.95973691 127.7441394 221.95492313 124.42187736 221.95117188 121.09960938 C221.94518375 115.82119752 221.93808428 110.54280293 221.92456055 105.2644043 C221.91373056 101.01098885 221.90772293 96.75759191 221.90512276 92.50416374 C221.90326871 90.87778367 221.89964848 89.25140466 221.89426994 87.62503242 C221.88705802 85.35489807 221.88600912 83.08484115 221.88647461 80.81469727 C221.884254 79.52008072 221.88203339 78.22546417 221.87974548 76.89161682 C222 74 222 74 223 73 C225.23929886 72.90563471 227.4816175 72.88257673 229.72290039 72.88647461 C230.43669829 72.88635407 231.1504962 72.88623354 231.88592434 72.88610935 C234.20653287 72.88685835 236.52706201 72.89448595 238.84765625 72.90234375 C240.2763261 72.90381321 241.70499649 72.9048339 243.13366699 72.90539551 C248.44328618 72.91064792 253.75289386 72.92460901 259.0625 72.9375 C276.8515625 72.9684375 276.8515625 72.9684375 295 73 C295 48.91 295 24.82 295 0 C320.41 0 345.82 0 372 0 C372 24.75 372 49.5 372 75 C347.58 75 323.16 75 298 75 C298 98.76 298 122.52 298 147 C322.42 147 346.84 147 372 147 C372 195.84 372 244.68 372 295 C395.43 295 418.86 295 443 295 C443 246.16 443 197.32 443 147 C468.08 147 493.16 147 519 147 C519 196.17 519 245.34 519 296 C494.91 296 470.82 296 446 296 C446 320.42 446 344.84 446 370 C421.58 370 397.16 370 372 370 C372 394.42 372 418.84 372 444 C347.58 444 323.16 444 298 444 C298 467.76 298 491.52 298 516 C322.42 516 346.84 516 372 516 C372 540.75 372 565.5 372 591 C353.07309853 591.04010881 353.07309853 591.04010881 345.03320312 591.04882812 C339.53750651 591.05481637 334.04182649 591.06191619 328.54614258 591.07543945 C324.11766312 591.086269 319.68920144 591.09227698 315.26070976 591.09487724 C313.56734372 591.09673137 311.87397871 591.10035175 310.18062019 591.10573006 C307.81708768 591.1129414 305.45362955 591.1139909 303.09008789 591.11352539 C302.38302704 591.11712067 301.67596619 591.12071594 300.94747925 591.12442017 C296.11405216 591.11405216 296.11405216 591.11405216 295 590 C294.90560022 587.73008113 294.88257774 585.45718033 294.88647461 583.18530273 C294.88629381 582.0997376 294.88629381 582.0997376 294.88610935 580.99224186 C294.88685837 578.63932837 294.89448607 576.28649315 294.90234375 573.93359375 C294.9038132 572.48506712 294.90483389 571.03653996 294.90539551 569.5880127 C294.91064799 564.20450039 294.92460908 558.82099943 294.9375 553.4375 C294.958125 541.413125 294.97875 529.38875 295 517 C270.91 517 246.82 517 222 517 C222 492.91 222 468.82 222 444 C198.24 444 174.48 444 150 444 C150 468.09 150 492.18 150 517 C125.91 517 101.82 517 77 517 C77 541.42 77 565.84 77 591 C51.59 591 26.18 591 0 591 C0 566.25 0 541.5 0 516 C24.42 516 48.84 516 74 516 C74 492.24 74 468.48 74 444 C49.58 444 25.16 444 0 444 C0 419.58 0 395.16 0 370 C-24.09 370 -48.18 370 -73 370 C-73 345.58 -73 321.16 -73 296 C-97.42 296 -121.84 296 -147 296 C-147 246.83 -147 197.66 -147 147 C-121.92 147 -96.84 147 -71 147 C-71 195.84 -71 244.68 -71 295 C-47.57 295 -24.14 295 0 295 C-0.01160156 284.40003906 -0.02320312 273.80007813 -0.03515625 262.87890625 C-0.04026266 256.18424455 -0.04511766 249.48958425 -0.04882812 242.79492188 C-0.05477139 232.15681478 -0.06177384 221.51871558 -0.07543945 210.88061523 C-0.08538548 203.13438773 -0.09185323 195.38816661 -0.09408849 187.6419329 C-0.09539574 183.53779081 -0.09848247 179.43366698 -0.10573006 175.32953072 C-0.11248899 171.4710536 -0.11461722 167.61260235 -0.11310768 163.75411987 C-0.11338407 162.3338755 -0.11538995 160.91363031 -0.11920547 159.49339104 C-0.12414067 157.5625813 -0.12239803 155.63175785 -0.12025452 153.70094299 C-0.12163721 152.07628286 -0.12163721 152.07628286 -0.12304783 150.41880131 C0 148 0 148 1 147 C3.26991887 146.90560022 5.54281967 146.88257774 7.81469727 146.88647461 C8.88293228 146.88625557 8.88293228 146.88625557 9.9727478 146.8860321 C12.33733112 146.8867313 14.70183661 146.89452394 17.06640625 146.90234375 C18.70165463 146.90420791 20.33690357 146.90563182 21.97215271 146.90663147 C26.28434785 146.91045682 30.59650952 146.92028725 34.90869141 146.93133545 C40.0781968 146.94334373 45.24771336 146.94795173 50.4172287 146.95378876 C58.27817577 146.963499 66.13904935 146.98265542 74 147 C74 123.24 74 99.48 74 75 C68.74191406 75.01160156 63.48382812 75.02320313 58.06640625 75.03515625 C54.7441394 75.04026309 51.42187736 75.04507687 48.09960938 75.04882812 C42.82119752 75.05481625 37.54280293 75.06191572 32.2644043 75.07543945 C28.01098885 75.08626944 23.75759191 75.09227707 19.50416374 75.09487724 C17.87778367 75.09673129 16.25140466 75.10035152 14.62503242 75.10573006 C12.35489807 75.11294198 10.08484115 75.11399088 7.81469727 75.11352539 C5.87277245 75.11685631 5.87277245 75.11685631 3.89161682 75.12025452 C1 75 1 75 0 74 C-0.09443335 71.69946165 -0.11742128 69.39597827 -0.11352539 67.09350586 C-0.11364593 66.35988358 -0.11376646 65.62626131 -0.11389065 64.87040806 C-0.11314161 62.48518958 -0.10551382 60.10004833 -0.09765625 57.71484375 C-0.0961868 56.24646034 -0.09516611 54.77807642 -0.09460449 53.30969238 C-0.08935194 47.85228696 -0.07539085 42.39489273 -0.0625 36.9375 C-0.041875 24.748125 -0.02125 12.55875 0 0 Z M77 223 C77 246.76 77 270.52 77 295 C100.43 295 123.86 295 148 295 C148 271.24 148 247.48 148 223 C124.57 223 101.14 223 77 223 Z M224 223 C224 246.76 224 270.52 224 295 C247.43 295 270.86 295 295 295 C295 271.24 295 247.48 295 223 C271.57 223 248.14 223 224 223 Z " fill="#A868B7" transform="translate(2680,66)"/>
<path d="M0 0 C42.57 0 85.14 0 129 0 C129 58.41 129 116.82 129 177 C174.54 177 220.08 177 267 177 C267 118.59 267 60.18 267 0 C309.24 0 351.48 0 395 0 C395 156.75 395 313.5 395 475 C352.76 475 310.52 475 267 475 C267 415.93 267 356.86 267 296 C221.46 296 175.92 296 129 296 C129 355.07 129 414.14 129 475 C97.3509375 475.0309375 97.3509375 475.0309375 65.0625 475.0625 C58.389104 475.071604 51.71570801 475.08070801 44.84008789 475.09008789 C36.71960449 475.09460449 36.71960449 475.09460449 32.92356873 475.09544373 C30.26026077 475.09698392 27.59699942 475.10014118 24.93370056 475.10557556 C20.91029972 475.1136772 16.88693436 475.11390759 12.86352539 475.11352539 C11.07019697 475.11892255 11.07019697 475.11892255 9.24063969 475.12442875 C8.16450633 475.12305125 7.08837297 475.12167376 5.97962952 475.12025452 C5.03663529 475.12117631 4.09364107 475.1220981 3.12207127 475.12304783 C1 475 1 475 0 474 C-0.09883799 471.48246541 -0.13177658 468.99236168 -0.12304783 466.4743185 C-0.12420167 465.67287553 -0.12535552 464.87143256 -0.12654433 464.04570344 C-0.12921839 461.32540624 -0.12468238 458.60516671 -0.12025452 455.88487244 C-0.12069006 453.92885387 -0.12156465 451.97283535 -0.12284368 450.01681715 C-0.12509201 444.61472314 -0.12106277 439.21264875 -0.11606562 433.81055725 C-0.11176612 427.99525124 -0.11320719 422.17994643 -0.1139679 416.36463928 C-0.11449345 406.28022434 -0.11134337 396.19581584 -0.10573006 386.11140251 C-0.0976193 371.53084973 -0.09499693 356.95029944 -0.09374207 342.36974473 C-0.09163987 318.71646544 -0.08489754 295.06318951 -0.07543945 271.40991211 C-0.06625981 248.42651385 -0.05917385 225.44311652 -0.05493164 202.4597168 C-0.05480011 201.75166582 -0.05466859 201.04361484 -0.05453308 200.31410778 C-0.05321459 193.20377584 -0.05193877 186.0934439 -0.05069422 178.98311195 C-0.04815779 164.49765747 -0.04533653 150.01220305 -0.04234314 135.52674866 C-0.0421372 134.52765197 -0.0421372 134.52765197 -0.04192711 133.50837151 C-0.03272149 89.00557931 -0.01623652 44.50279021 0 0 Z " fill="#AAAAAA" transform="translate(106,93)"/>
<path d="M0 0 C26.01883781 -0.09384864 52.0376499 -0.1641764 78.05662346 -0.20724869 C90.14034593 -0.22778817 102.22396265 -0.25574209 114.30761719 -0.30175781 C124.85174867 -0.34189141 135.39580348 -0.36749522 145.94000924 -0.37635398 C151.51218492 -0.38152426 157.08414144 -0.39349195 162.65624619 -0.42292023 C219.21260084 -0.70979025 270.5705709 8.40612024 313 49 C313.86753906 49.79277344 314.73507812 50.58554688 315.62890625 51.40234375 C333.87312462 68.66038816 346.31715902 91.95734182 353 116 C353.31453125 117.10214844 353.6290625 118.20429688 353.953125 119.33984375 C363.55850684 156.67841141 356.36552919 194.8739464 338.1875 228.25 C333.78154224 235.70226449 328.58140533 242.39623891 323 249 C322.55785156 249.52867676 322.11570312 250.05735352 321.66015625 250.60205078 C309.89570533 264.52651773 294.52931979 276.23877116 278 284 C279.5915961 288.82178768 282.32704702 292.48462046 285.28515625 296.5390625 C289.82403052 302.86591037 294.22495052 309.26279735 298.49609375 315.7734375 C299.05032013 316.61815613 299.60454651 317.46287476 300.17556763 318.33319092 C301.33073733 320.09652101 302.48508943 321.86038696 303.63867188 323.62475586 C314.13286456 339.66941936 324.74953482 355.62606764 335.5 371.5 C346.62808085 387.93493955 357.59888473 404.4671306 368.4831543 421.06445312 C374.23032828 429.81961108 380.01752374 438.54143631 385.93359375 447.18359375 C386.75231964 448.38176476 386.75231964 448.38176476 387.58758545 449.60414124 C390.14532638 453.34463786 392.7129445 457.07763727 395.29833984 460.79907227 C396.19529509 462.10542001 397.09196049 463.41196684 397.98828125 464.71875 C398.39920517 465.30196518 398.81012909 465.88518036 399.23350525 466.48606873 C401.43913841 469.72317191 402 470.9318605 402 475 C382.78107331 475.4447433 363.56319638 475.77931437 344.34018326 475.98443127 C335.41334841 476.08222528 326.48971815 476.21540976 317.56494141 476.43334961 C309.78159622 476.62332474 302.00057141 476.74543642 294.21497226 476.7876814 C290.09470815 476.81236717 285.98107828 476.86989202 281.86295319 477.00887108 C256.83837062 477.82147292 256.83837062 477.82147292 250.46096039 473.13362694 C246.41745814 468.69636054 243.9604384 463.78319766 241.86036968 458.19921207 C240.75830864 455.38220677 239.23844735 452.96392575 237.546875 450.46484375 C236.61358295 448.95634763 235.68127722 447.44724081 234.75 445.9375 C234.22317627 445.08502686 233.69635254 444.23255371 233.15356445 443.35424805 C226.77146797 433.02146236 220.41014092 422.6758546 214.04833984 412.33056641 C210.70006312 406.88632432 207.34995241 401.4432111 204 396 C202.66665758 393.83333892 201.33332426 391.66667225 200 389.5 C199.34 388.4275 198.68 387.355 198 386.25 C160 324.49999999 160 324.49999999 157.99658203 321.24438477 C156.6747147 319.09639076 155.35277561 316.94844091 154.03076172 314.80053711 C150.89947394 309.71287148 147.76893615 304.62474864 144.64093018 299.5350647 C143.15950321 297.12468367 141.67766821 294.71455361 140.19580078 292.30444336 C139.14706199 290.59838971 138.09891523 288.89197217 137.05078125 287.18554688 C136.41785156 286.15623047 135.78492188 285.12691406 135.1328125 284.06640625 C134.57480957 283.15834229 134.01680664 282.25027832 133.44189453 281.31469727 C132.32593329 279.52322613 131.17076416 277.75614624 130 276 C129.505 374.505 129.505 374.505 129 475 C97.3509375 475.0309375 97.3509375 475.0309375 65.0625 475.0625 C58.389104 475.071604 51.71570801 475.08070801 44.84008789 475.09008789 C36.71960449 475.09460449 36.71960449 475.09460449 32.92356873 475.09544373 C30.26026077 475.09698392 27.59699942 475.10014118 24.93370056 475.10557556 C20.91029972 475.1136772 16.88693436 475.11390759 12.86352539 475.11352539 C11.07019697 475.11892255 11.07019697 475.11892255 9.24063969 475.12442875 C8.16450633 475.12305125 7.08837297 475.12167376 5.97962952 475.12025452 C5.03663529 475.12117631 4.09364107 475.1220981 3.12207127 475.12304783 C1 475 1 475 0 474 C-0.09883799 471.48246541 -0.13177658 468.99236168 -0.12304783 466.4743185 C-0.12420167 465.67287553 -0.12535552 464.87143256 -0.12654433 464.04570344 C-0.12921839 461.32540624 -0.12468238 458.60516671 -0.12025452 455.88487244 C-0.12069006 453.92885387 -0.12156465 451.97283535 -0.12284368 450.01681715 C-0.12509201 444.61472314 -0.12106277 439.21264875 -0.11606562 433.81055725 C-0.11176612 427.99525124 -0.11320719 422.17994643 -0.1139679 416.36463928 C-0.11449345 406.28022434 -0.11134337 396.19581584 -0.10573006 386.11140251 C-0.0976193 371.53084973 -0.09499693 356.95029944 -0.09374207 342.36974473 C-0.09163987 318.71646544 -0.08489754 295.06318951 -0.07543945 271.40991211 C-0.06625981 248.42651385 -0.05917385 225.44311652 -0.05493164 202.4597168 C-0.05480011 201.75166582 -0.05466859 201.04361484 -0.05453308 200.31410778 C-0.05321459 193.20377584 -0.05193877 186.0934439 -0.05069422 178.98311195 C-0.04815779 164.49765747 -0.04533653 150.01220305 -0.04234314 135.52674866 C-0.0421372 134.52765197 -0.0421372 134.52765197 -0.04192711 133.50837151 C-0.03272149 89.0055796 -0.01685496 44.50278958 0 0 Z M128 114 C128 144.69 128 175.38 128 207 C136.12625 207.20625 144.2525 207.4125 152.625 207.625 C155.16010254 207.69541504 157.69520508 207.76583008 160.30712891 207.83837891 C180.10508091 208.32234056 198.60157076 208.24132184 214 194 C223.41975111 184.86569589 227.90979425 174.14581919 228.3125 161.125 C228.06528592 148.17098221 223.32291551 137.72982924 214.546875 128.39453125 C200.86055855 115.52687483 184.78550384 113.81504128 166.8671875 113.90234375 C165.37844116 113.90385437 165.37844116 113.90385437 163.85961914 113.90539551 C160.19806745 113.91057629 156.53653241 113.924537 152.875 113.9375 C140.561875 113.9684375 140.561875 113.9684375 128 114 Z " fill="#A9A9A9" transform="translate(1088,93)"/>
<path d="M0 0 C23.51170062 -0.07997933 47.02334466 -0.15699948 70.53515625 -0.1953125 C84.93511714 -0.21896725 99.33498382 -0.24664346 113.73486328 -0.30175781 C124.22625706 -0.34189328 134.71757376 -0.36749565 145.20904219 -0.37635398 C150.75327269 -0.38152395 156.29728291 -0.39348959 161.84144211 -0.42292023 C221.11561295 -0.72507827 273.27938798 9.83796976 316.84765625 52.80859375 C346.24403372 82.76890758 357.57284909 121.68987894 357.21484375 162.7265625 C356.46732024 198.76555294 339.41899227 231.32783363 315 257 C314.30648438 257.76957031 313.61296875 258.53914063 312.8984375 259.33203125 C302.82329274 270.1268292 289.71387293 277.73913541 277 285 C277.48428467 285.71389893 277.96856934 286.42779785 278.4675293 287.16333008 C283.88024254 295.1440869 289.28791937 303.12824262 294.69287109 311.11425781 C296.91889244 314.40325711 299.14588213 317.69159784 301.37353516 320.97949219 C315.48478789 341.81078285 329.48788349 362.70641336 343.29821777 383.73855591 C352.51410662 397.77022051 361.84404427 411.72010299 371.25 425.625 C387.79233474 450.09740468 387.79233474 450.09740468 394.2052002 459.82293701 C395.27658058 461.44559817 396.35448893 463.06394331 397.43261719 464.68212891 C398.04911133 465.62233887 398.66560547 466.56254883 399.30078125 467.53125 C399.82841064 468.33111328 400.35604004 469.13097656 400.8996582 469.95507812 C402 472 402 472 402 475 C382.79857039 475.49170974 363.59842602 475.86141575 344.39199543 476.08805561 C335.47264358 476.19611543 326.55721362 476.34325233 317.64038086 476.58422852 C309.86324709 476.79430333 302.08895282 476.92918746 294.30906075 476.97585839 C290.19202239 477.0031299 286.08310159 477.06658794 281.96868324 477.22033119 C257.04938542 478.11556505 257.04938542 478.11556505 250.40410995 473.00274277 C246.12581235 468.13932002 243.54243978 462.75096432 241.18701649 456.76508427 C239.20085869 452.13844787 236.4345173 448.0167398 233.6875 443.8125 C213.15027726 410.64302182 213.15027726 410.64302182 204.453125 396.0703125 C196.24575109 382.39372669 187.78146569 368.86721196 179.375 355.3125 C174.87955843 348.06398226 170.4278665 340.78998089 166 333.5 C159.93830355 323.52051051 153.81111584 313.58320032 147.65283203 303.66308594 C144.72389713 298.94390988 141.79943261 294.22196688 138.875 289.5 C138.33029053 288.62134277 137.78558105 287.74268555 137.22436523 286.83740234 C136.71462158 286.01449707 136.20487793 285.1915918 135.6796875 284.34375 C135.23351074 283.62380859 134.78733398 282.90386719 134.32763672 282.16210938 C132.86805257 279.78511834 131.43510863 277.39184771 130 275 C129.67 341 129.34 407 129 475 C86.76 475 44.52 475 1 475 C0.87128113 428.35173386 0.74354243 381.70346547 0.61781773 335.05519119 C0.60280628 329.48585009 0.58778358 323.91650902 0.57275391 318.34716797 C0.56976329 317.23890677 0.56677268 316.13064557 0.56369144 314.9888007 C0.51591416 297.29333805 0.46723581 279.59787799 0.41819459 261.90241879 C0.36749321 243.60027697 0.3178291 225.29813251 0.26903296 206.99598551 C0.2417607 196.77710176 0.21408015 186.55821954 0.18519592 176.33934021 C0.01936876 117.559445 -0.02861665 58.78012169 0 0 Z M128 114 C128 144.69 128 175.38 128 207 C140.1584375 207.309375 140.1584375 207.309375 152.5625 207.625 C156.3514978 207.73062256 156.3514978 207.73062256 160.21704102 207.83837891 C181.91147921 208.82548134 181.91147921 208.82548134 202.3125 202.5 C202.97491699 202.1503418 203.63733398 201.80068359 204.31982422 201.44042969 C215.73539998 195.10554988 222.63935964 185.9187832 226.8046875 173.625 C229.92664166 161.65038129 228.29937139 148.20966996 222.125 137.5 C219.75227145 133.88552407 217.26296998 130.86504681 214 128 C213.51144531 127.52046875 213.02289062 127.0409375 212.51953125 126.546875 C199.96771973 114.74042046 183.16925009 113.82291607 166.8671875 113.90234375 C165.37844116 113.90385437 165.37844116 113.90385437 163.85961914 113.90539551 C160.19806745 113.91057629 156.53653241 113.924537 152.875 113.9375 C140.561875 113.9684375 140.561875 113.9684375 128 114 Z " fill="#A9A9A9" transform="translate(1532,93)"/>
<path d="M0 0 C20.79 0 41.58 0 63 0 C72.19452136 18.38904272 72.19452136 18.38904272 75.33984375 25.23046875 C75.70385788 26.01688248 76.06787201 26.8032962 76.44291687 27.61354065 C77.61021404 30.13707646 78.77394911 32.66223498 79.9375 35.1875 C80.77049913 36.99063911 81.60367317 38.79369742 82.43701172 40.59667969 C84.96208166 46.06257883 87.48189473 51.53088933 90 57 C90.37912537 57.82332825 90.75825073 58.64665649 91.14886475 59.49493408 C95.74414741 69.47583851 100.329773 79.46116454 104.91162109 89.44824219 C108.06564131 96.3230653 111.22179937 103.19690638 114.37890625 110.0703125 C115.08387629 111.60511812 115.78879177 113.13994879 116.49365234 114.67480469 C120.50066708 123.39954717 124.51494261 132.12087361 128.54296875 140.8359375 C129.10995735 142.0627272 129.10995735 142.0627272 129.68840027 143.31430054 C130.06652359 144.13242218 130.44464691 144.95054382 130.83422852 145.79345703 C137.40480408 160.00984099 143.94324077 174.23939526 150.40829468 188.50408936 C155.91417376 200.64930777 161.49229186 212.760375 167.08837891 224.86425781 C172.4200371 236.39694013 177.72579497 247.94093231 183 259.5 C188.63465183 271.8482235 194.30563555 284.17920121 200 296.5 C206.0243284 309.53473613 212.01821912 322.58279723 217.97949219 335.64648438 C223.28851401 347.27878892 228.63559937 358.89313829 234 370.5 C239.6943649 382.82079976 245.36518237 395.15185156 251 407.5 C257.9499621 422.72970665 264.95332779 437.93446034 271.97698975 453.13031006 C272.67604338 454.64375455 273.37418811 456.15761924 274.0713501 457.67193604 C275.64364847 461.08430245 277.22819801 464.48897114 278.85449219 467.87597656 C279.40524414 469.03323242 279.95599609 470.19048828 280.5234375 471.3828125 C281.00474121 472.37941895 281.48604492 473.37602539 281.98193359 474.40283203 C283 477 283 477 283 481 C236.8 481 190.6 481 143 481 C134.05448592 463.10897183 126.78052114 444.42755008 119 426 C61.58 426 4.16 426 -55 426 C-60.28 438.21 -65.56 450.42 -71 463 C-73.64 468.94 -76.28 474.88 -79 481 C-125.2 481 -171.4 481 -219 481 C-217.87507522 474.25045135 -217.87507522 474.25045135 -216.39624023 471.1105957 C-215.90226746 470.04735329 -215.90226746 470.04735329 -215.39831543 468.96263123 C-214.8589032 467.83064049 -214.8589032 467.83064049 -214.30859375 466.67578125 C-213.93198608 465.86984024 -213.55537842 465.06389923 -213.1673584 464.23353577 C-211.93059112 461.59007973 -210.6839174 458.95141764 -209.4375 456.3125 C-208.12764264 453.51754115 -206.82047304 450.72133475 -205.51332092 447.92510986 C-204.62643585 446.02850742 -203.73868367 444.13231021 -202.8500824 442.23651123 C-198.82273732 433.64150912 -194.87033635 425.01355161 -190.9375 416.375 C-185.30772373 404.02449213 -179.63385077 391.69493374 -173.9375 379.375 C-168.10986351 366.77011826 -162.3248774 354.1471656 -156.59298706 341.49847412 C-151.06652122 329.30639371 -145.46327445 317.1506289 -139.84423828 305.00097656 C-134.68902516 293.85209127 -129.56992576 282.68791934 -124.5 271.5 C-118.69277223 258.68602832 -112.81553654 245.90543286 -106.91162109 233.13574219 C-101.57996318 221.60306049 -96.27409773 210.0591163 -91 198.5 C-85.34642886 186.10920073 -79.65307122 173.73731738 -73.9375 161.375 C-68.1099497 148.77007797 -62.32487772 136.14716632 -56.59298706 123.49847412 C-51.44543528 112.1423259 -46.23370406 100.81667726 -41 89.5 C-35.13567154 76.81913943 -29.30975998 64.12210061 -23.54098511 51.39749146 C-15.75946187 34.23482559 -7.87624088 17.11943265 0 0 Z M32 225 C26.74899241 235.18398645 22.06172591 245.5289952 17.5625 256.0625 C16.8722644 257.66970325 16.18158092 259.27671421 15.49047852 260.88354492 C14.05344305 264.22565905 12.61832559 267.56858682 11.18457031 270.91210938 C7.95898688 278.42993075 4.71000679 285.93763443 1.46139526 293.44552612 C0.47104609 295.73495035 -0.51839692 298.02476398 -1.50756836 300.31469727 C-1.97517326 301.39647499 -1.97517326 301.39647499 -2.45222473 302.50010681 C-3.06299215 303.9134776 -3.67318459 305.32709702 -4.28276062 306.74098206 C-5.83915571 310.34464283 -7.41477496 313.93836506 -9.01904297 317.52099609 C-9.50847633 318.61996468 -9.50847633 318.61996468 -10.00779724 319.74113464 C-10.63044676 321.13704059 -11.25754686 322.5309727 -11.88978577 323.92256165 C-13.17072184 326.80120843 -14 328.81050396 -14 332 C16.36 332 46.72 332 78 332 C75.67441994 324.90574159 75.67441994 324.90574159 72.95727539 318.04248047 C72.58090439 317.1721669 72.20453339 316.30185333 71.8167572 315.40516663 C71.41445389 314.48513351 71.01215057 313.5651004 70.59765625 312.6171875 C70.16727554 311.62412094 69.73689484 310.63105438 69.29347229 309.6078949 C68.36750587 307.47208831 67.4399 305.33699188 66.51080322 303.20254517 C64.03973273 297.52514381 61.5809435 291.84242606 59.12109375 286.16015625 C58.3645752 284.41375099 58.3645752 284.41375099 57.59277344 282.63206482 C52.21800525 270.21440297 46.91538315 257.76629903 41.625 245.3125 C41.18535919 244.27792664 40.74571838 243.24335327 40.29275513 242.1774292 C37.8600611 236.45237206 35.42911779 230.7265754 33 225 C32.67 225 32.34 225 32 225 Z " fill="#A9A9A9" transform="translate(763,87)"/>
<path d="M0 0 C47.85 0 95.7 0 145 0 C154.22601859 18.45203718 154.22601859 18.45203718 157.98828125 26.16015625 C158.41322876 27.02951309 158.83817627 27.89886993 159.27600098 28.79457092 C160.62242852 31.55009529 161.96759047 34.30623445 163.3125 37.0625 C163.77731781 38.01453308 164.24213562 38.96656616 164.72103882 39.94744873 C170.19886074 51.16862116 175.66158561 62.39569898 181.02392578 73.67260742 C185.0321634 82.09593385 189.11103096 90.48455812 193.1875 98.875 C198.53435166 109.8814891 203.84840952 120.90035603 209 132 C211.15941782 129.27053626 212.79650922 126.60344064 214.27734375 123.45703125 C214.70200928 122.56129395 215.1266748 121.66555664 215.56420898 120.74267578 C216.01739502 119.77571777 216.47058105 118.80875977 216.9375 117.8125 C217.92680033 115.72252226 218.91639367 113.63268321 219.90625 111.54296875 C220.67195313 109.92140869 220.67195313 109.92140869 221.453125 108.26708984 C223.92665893 103.04284253 226.43254623 97.83423527 228.9375 92.625 C229.94671624 90.52348632 230.95583025 88.42192353 231.96484375 86.3203125 C232.46612793 85.27649414 232.96741211 84.23267578 233.48388672 83.15722656 C235.98994908 77.93848285 238.49492296 72.71921674 241 67.5 C241.99999471 65.41666413 242.99999471 63.33333079 244 61.25 C244.7425 59.703125 244.7425 59.703125 245.5 58.125 C250 48.75 250 48.75 251.50244141 45.62011719 C252.49451538 43.55316163 253.48638008 41.48610562 254.47802734 39.41894531 C257.09751853 33.9591563 259.72146141 28.50156184 262.3515625 23.046875 C262.89941406 21.90927734 263.44726562 20.77167969 264.01171875 19.59960938 C265.06246496 17.41797529 266.11448415 15.2369537 267.16796875 13.05664062 C267.87759766 11.58227539 267.87759766 11.58227539 268.6015625 10.078125 C269.01744629 9.21606445 269.43333008 8.35400391 269.86181641 7.46582031 C270.99316463 5.0148085 271.99742348 2.5064413 273 0 C321.18 0 369.36 0 419 0 C418.01527285 3.93890859 416.51003118 7.08463353 414.60546875 10.6171875 C414.26218033 11.2620108 413.91889191 11.90683411 413.56520081 12.57119751 C412.44368005 14.67483758 411.31575459 16.77496495 410.1875 18.875 C409.40695556 20.33514162 408.62668403 21.79542916 407.84667969 23.25585938 C402.5800201 33.10516482 397.25929163 42.92467247 391.890625 52.71875 C388.7394357 58.46783336 385.61909206 64.2334565 382.5 70 C377.85688394 78.58080914 373.19598795 87.15165254 368.51733398 95.71313477 C365.93790656 100.4362384 363.36882249 105.16458115 360.81640625 109.90234375 C355.45564711 119.848122 350.03650601 129.74855893 344.4375 139.5625 C339.58521012 148.07196664 334.99471357 156.68800106 330.50830078 165.39501953 C327.08925666 171.99773475 323.50698868 178.48536989 319.8125 184.9375 C314.50300553 194.21840255 309.4334461 203.61063155 304.4375 213.0625 C304.07450806 213.74909698 303.71151611 214.43569397 303.33752441 215.14309692 C302.9763855 215.82620941 302.61524658 216.5093219 302.24316406 217.21313477 C301.52413827 218.57310572 300.80506329 219.93305067 300.0859375 221.29296875 C299.56018127 222.28729668 299.56018127 222.28729668 299.02380371 223.30171204 C295.91104034 229.18187837 292.75188625 235.03601877 289.5625 240.875 C289.13960693 241.64980713 288.71671387 242.42461426 288.28100586 243.22290039 C287.85956299 243.99239014 287.43812012 244.76187988 287.00390625 245.5546875 C286.58733702 246.33562334 286.17076778 247.11655918 285.74157524 247.92115974 C284.41425161 250.26766613 283.04016717 252.48469755 281.56228828 254.73261833 C274.02094913 266.59687996 272.56819187 276.09397635 272.77294922 289.95361328 C272.76588804 291.98581845 272.75443054 294.01801229 272.7389679 296.0501709 C272.70965533 301.50829856 272.74099241 306.96451283 272.78413153 312.42248392 C272.81876937 318.14799518 272.79637106 323.87329343 272.78030396 329.59884644 C272.75847501 340.41457224 272.7871338 351.22953687 272.834427 362.04515731 C272.89545248 376.6788147 272.87748413 391.31236842 272.86419678 405.94611168 C272.84535712 428.96451535 272.93119082 451.98130483 273 475 C231.09 475 189.18 475 146 475 C144.43766619 471.87533239 144.89069894 468.55955533 144.92253113 465.13166809 C144.92782435 463.89775449 144.92782435 463.89775449 144.9332245 462.63891333 C144.94157921 460.82898714 144.9522596 459.0190706 144.96491814 457.20916939 C144.98550048 454.26332403 145.0003019 451.31749969 145.01351929 448.37161255 C145.02781111 445.19704929 145.04247901 442.02249229 145.05887926 438.84793913 C145.09924758 430.95026784 145.11997914 423.05271979 145.1287384 415.154953 C145.13002202 414.00812776 145.13130563 412.86130252 145.13262814 411.67972499 C145.13751115 406.94391812 145.14168718 402.20811095 145.14541471 397.47230303 C145.15668291 384.05143635 145.18709104 370.63128116 145.27758789 357.21069336 C145.34933709 346.55174408 145.3779554 335.89363459 145.35742456 325.23445052 C145.34814557 319.60084601 145.35959186 313.96911488 145.42339134 308.33582497 C146.41188602 275.88604352 146.41188602 275.88604352 133.39396 246.9224062 C131.45623258 244.25009192 129.95339664 241.44432869 128.40625 238.53125 C127.44060565 236.85237655 126.47195873 235.17522575 125.5 233.5 C120.60679163 224.95256635 115.96730472 216.30207042 111.44702148 207.55249023 C106.62348574 198.22793872 101.5918744 189.02369367 96.54296875 179.81982422 C93.86730142 174.9299575 91.21525914 170.02732113 88.5625 165.125 C88.02318848 164.12879639 87.48387695 163.13259277 86.92822266 162.10620117 C84.73651282 158.05738122 82.5455257 154.00817035 80.35449219 149.95898438 C74.58499415 139.29758277 68.80946432 128.63968725 63 118 C54.25804858 101.98769971 45.57888458 85.9417766 36.9375 69.875 C32.14889696 60.97237495 27.33225111 52.08578667 22.48388672 43.21557617 C18.11695238 35.22413013 13.77966407 27.21678505 9.45092773 19.20458984 C8.94247314 18.26437988 8.43401855 17.32416992 7.91015625 16.35546875 C7.42434082 15.45618652 6.93852539 14.5569043 6.43798828 13.63037109 C4.62798016 10.31950056 2.76301111 7.04095633 0.88061523 3.77075195 C0 2 0 2 0 0 Z " fill="#A9A9A9" transform="translate(1889,93)"/>
<path d="M0 0 C25.08 0 50.16 0 76 0 C76 49.17 76 98.34 76 149 C51.91 149 27.82 149 3 149 C3 173.42 3 197.84 3 223 C2.67 223 2.34 223 2 223 C1.98969254 222.07514297 1.97938507 221.15028595 1.96876526 220.19740295 C1.87096818 211.50040776 1.76847962 202.80348344 1.66066074 194.10660648 C1.60539123 189.63498006 1.55196493 185.16334715 1.50268555 180.69165039 C1.45510123 176.37982234 1.40276084 172.06807632 1.34705925 167.75634575 C1.32660872 166.10766061 1.30790019 164.45895294 1.29092598 162.81022835 C1.26694141 160.5089004 1.23687923 158.2077289 1.20532227 155.90649414 C1.18977798 154.5941127 1.1742337 153.28173126 1.15821838 151.92958069 C1.33304645 149.11039828 1.33304645 149.11039828 0 148 C-0.09658904 146.08905061 -0.12187192 144.17448134 -0.12025452 142.26109314 C-0.12162918 141.01442368 -0.12300385 139.76775421 -0.12442017 138.48330688 C-0.12088056 137.08905006 -0.11724574 135.69479347 -0.11352539 134.30053711 C-0.11324353 132.84228009 -0.11340124 131.38402293 -0.1139679 129.92576599 C-0.1142559 125.95486515 -0.10835877 121.98399425 -0.10139394 118.01310039 C-0.09516081 113.86774899 -0.09455663 109.72239698 -0.09336853 105.57704163 C-0.09025509 97.72180673 -0.08204154 89.86658568 -0.07201904 82.01135689 C-0.05877316 71.40040924 -0.0533581 60.78945782 -0.04751682 50.17850399 C-0.03810165 33.45232561 -0.01818282 16.72617646 0 0 Z " fill="#9E5EAD" transform="translate(3123,213)"/>
</svg>
