<?xml version="1.0" encoding="UTF-8"?>
<svg version="1.1" xmlns="http://www.w3.org/2000/svg" width="3264" height="710">
<path d="M0 0 C1.03431152 0.17160645 2.06862305 0.34321289 3.13427734 0.52001953 C23.77582607 4.05559171 43.76610717 9.68652444 63 18 C64.43868599 18.60053861 65.87749399 19.20078498 67.31640625 19.80078125 C90.99890437 29.83032431 112.62315275 44.48353289 131.58984375 61.80859375 C133.73971812 63.76334176 135.92116823 65.66918855 138.125 67.5625 C144.9997567 73.58307851 151.01946563 80.03704063 156.7265625 87.17578125 C158.17004604 88.96897472 159.64131143 90.74042319 161.1484375 92.48046875 C168.46026787 100.99333985 174.20521386 110.41800718 180 120 C180.41282227 120.67160156 180.82564453 121.34320313 181.25097656 122.03515625 C214.83754292 176.96935546 221.38763172 247.05241276 206.875 308.90625 C194.41975222 359.60348971 165.41056696 406.81111392 124 439 C122.52660156 440.18142578 122.52660156 440.18142578 121.0234375 441.38671875 C63.86926 486.86375303 -10.98563485 502.98409093 -82.68212891 495.40234375 C-131.95401919 489.42735661 -178.1072065 470.78440193 -217 440 C-217.54253418 439.57460938 -218.08506836 439.14921875 -218.64404297 438.7109375 C-234.15026314 426.44863594 -248.49736846 412.09025696 -260 396 C-260.4527832 395.37561035 -260.90556641 394.7512207 -261.37207031 394.10791016 C-268.33015363 384.46681677 -274.42844773 374.49784105 -280 364 C-280.3412793 363.36658691 -280.68255859 362.73317383 -281.03417969 362.08056641 C-311.21961589 305.73923309 -316.21770846 235.50940919 -298.17285156 174.53149414 C-297.18041902 171.32990676 -296.09881038 168.16696405 -295 165 C-294.58363281 163.77023437 -294.16726563 162.54046875 -293.73828125 161.2734375 C-279.11264964 119.44219819 -251.44994771 79.86970559 -216 53 C-215.34757324 52.49291504 -214.69514648 51.98583008 -214.02294922 51.46337891 C-177.38859929 23.03918747 -133.80509278 5.67284068 -88 -1 C-87.23026855 -1.11714355 -86.46053711 -1.23428711 -85.66748047 -1.35498047 C-57.92608804 -5.37954548 -27.59276864 -4.64334064 0 0 Z M-143 157 C-146.16372054 160.55004946 -149.11543551 164.22078674 -152 168 C-152.58265625 168.74378906 -153.1653125 169.48757813 -153.765625 170.25390625 C-174.2631967 197.79153178 -181.47896883 232.0021064 -176.8125 265.6875 C-171.78864314 298.67456253 -154.88378829 328.47778923 -127.875 348.5625 C-97.83816341 370.2555594 -61.8750932 378.8787629 -25.17773438 373.359375 C9.13879938 367.6963775 40.23238848 350.064822 60.765625 321.74658203 C76.61898401 299.31483156 87.13229114 270.83201073 85 243 C84.95214355 242.33355469 84.90428711 241.66710937 84.85498047 240.98046875 C82.07905692 204.34776823 67.35667539 172.50585042 39.5625 148 C-13.34292728 105.49770978 -94.80601492 107.98916772 -143 157 Z " fill="#A9A9A9" transform="translate(1535,106)"/>
<path d="M0 0 C1.66390782 1.3367746 3.32992656 2.67093632 5 4 C4.39295849 7.09928651 3.41654477 9.12339887 1.55078125 11.66015625 C0.78411133 12.71203125 0.78411133 12.71203125 0.00195312 13.78515625 C-0.55556641 14.53667969 -1.11308594 15.28820312 -1.6875 16.0625 C-2.26693359 16.85398437 -2.84636719 17.64546875 -3.44335938 18.4609375 C-5.28911626 20.97877987 -7.14376242 23.48987711 -9 26 C-10.17345341 27.59224431 -11.3466355 29.18468861 -12.51953125 30.77734375 C-14.26661055 33.14862512 -16.01433798 35.51941362 -17.76416016 37.88867188 C-23.90807235 46.21213309 -29.95703733 54.60311396 -36 63 C-39.75438488 68.21683548 -43.51505398 73.42895585 -47.28808594 78.63232422 C-48.48495821 80.28766754 -49.67801038 81.94577663 -50.86816406 83.60595703 C-52.75872334 86.24284029 -54.65974365 88.87190964 -56.5625 91.5 C-57.43829712 92.72964478 -57.43829712 92.72964478 -58.33178711 93.98413086 C-58.88358643 94.74218018 -59.43538574 95.50022949 -60.00390625 96.28125 C-60.48674072 96.95220703 -60.9695752 97.62316406 -61.46704102 98.31445312 C-63.15856404 100.17434721 -64.7004696 101.02629985 -67 102 C-67.84820313 101.31035156 -68.69640625 100.62070312 -69.5703125 99.91015625 C-100.00314934 75.41746547 -136.96487148 58.93418305 -176.8125 62.625 C-211.14593235 66.41402131 -243.96835506 82.98266292 -266.1875 109.8125 C-287.90652059 138.36649187 -298.6691371 170.91203331 -294.5 206.98828125 C-292.54013103 220.93105282 -288.35487057 234.43551305 -282 247 C-281.48695313 248.03640625 -280.97390625 249.0728125 -280.4453125 250.140625 C-264.00575048 282.11064883 -235.46405181 303.21411946 -201.73193359 314.10522461 C-167.93329794 324.44846873 -127.97814056 323.66649923 -96.1652832 307.21142578 C-88.4279057 302.90595841 -82.18090162 297.24715937 -76 291 C-75.39542969 290.41734375 -74.79085938 289.8346875 -74.16796875 289.234375 C-64.16312588 278.78076609 -60.54094942 263.86854476 -59 250 C-94.64 250 -130.28 250 -167 250 C-167 218.65 -167 187.3 -167 155 C-85.82 155 -4.64 155 79 155 C86.63184025 208.42288175 83.10053909 261.91773209 59 311 C58.63712891 311.75410156 58.27425781 312.50820313 57.90039062 313.28515625 C43.05176262 343.90246494 20.40081374 370.8497903 -7 391 C-8.10574725 391.83556908 -9.2112168 392.67150577 -10.31640625 393.5078125 C-53.936962 426.05457674 -108.57582731 440.27550312 -162.4375 440.1875 C-163.18355499 440.18656342 -163.92960999 440.18562683 -164.69827271 440.18466187 C-195.04495927 440.10250488 -224.09253847 435.36252643 -253 426 C-253.81742676 425.73541992 -254.63485352 425.47083984 -255.47705078 425.19824219 C-276.87932449 418.16689616 -298.5017725 407.90574012 -317 395 C-318.08925781 394.25492188 -319.17851563 393.50984375 -320.30078125 392.7421875 C-340.562763 378.70778133 -359.91884549 361.48716793 -375 342 C-375.42394043 341.4524707 -375.84788086 340.90494141 -376.28466797 340.34082031 C-399.36544614 310.30292048 -414.90453816 276.7335121 -422.8125 239.6875 C-423.00739014 238.78298096 -423.20228027 237.87846191 -423.40307617 236.9465332 C-426.48412064 221.66623642 -427.3841661 206.36634238 -427.3125 190.8125 C-427.31034485 189.96282654 -427.3081897 189.11315308 -427.30596924 188.23773193 C-427.06691451 129.25201441 -404.25536487 70.57197452 -363.61328125 27.46875 C-362.31793631 26.18574168 -361.0119109 24.91334838 -359.69140625 23.65625 C-357.99839211 21.99842553 -356.50432184 20.26675536 -355 18.4375 C-352.37498407 15.3237843 -349.53334242 12.68626788 -346.42578125 10.05859375 C-344.60779763 8.51579606 -342.81794681 6.93974357 -341.04296875 5.34765625 C-262.87619852 -64.35854564 -147.94535568 -74.29572138 0 0 Z " fill="#A9A9A9" transform="translate(1108,162)"/>
<path d="M0 0 C1.26064018 -0.00180016 2.52128036 -0.00360031 3.82012177 -0.00545502 C62.56887087 0.40761115 125.01705852 15.65090994 171.42590332 53.01989746 C172.18798096 53.62970459 172.18798096 53.62970459 172.9654541 54.25183105 C186.75103666 65.35229553 199.01688002 77.69048875 209.42590332 92.01989746 C210.03546875 92.84699219 210.03546875 92.84699219 210.65734863 93.6907959 C233.44053253 124.94206584 245.46703178 161.99110684 250.42590332 200.01989746 C250.54304688 200.91611816 250.66019043 201.81233887 250.78088379 202.73571777 C258.71457744 267.12477384 246.64078068 335.78297663 206.46496582 387.88317871 C187.90192436 411.53401645 164.98994861 430.02385867 138.42590332 444.01989746 C137.47795898 444.52964111 137.47795898 444.52964111 136.51086426 445.04968262 C91.04465414 469.41407148 38.79258393 476.22129241 -12.13708496 476.14929199 C-13.79341673 476.15065229 -15.44974819 476.1524357 -17.1060791 476.15460205 C-21.53463969 476.15909536 -25.96317655 476.15742256 -30.39173746 476.15422297 C-35.04634565 476.15166456 -39.70095202 476.15404578 -44.3555603 476.15560913 C-52.14699667 476.15741751 -59.93842349 476.1550563 -67.7298584 476.15026855 C-76.7432894 476.14479398 -85.75669789 476.1466169 -94.77012837 476.15209496 C-102.53182357 476.15662324 -110.29351199 476.15727908 -118.05520809 476.15465629 C-122.68220635 476.15309635 -127.30919398 476.15289273 -131.93619156 476.15619278 C-136.26851214 476.15906849 -140.60080334 476.15710146 -144.93312073 476.15129852 C-146.52592291 476.14997078 -148.11872755 476.15036529 -149.71152878 476.15256119 C-151.8756418 476.15527125 -154.03965904 476.15189381 -156.20376587 476.1468811 C-157.41705629 476.14650408 -158.63034672 476.14612705 -159.88040352 476.1457386 C-162.57409668 476.01989746 -162.57409668 476.01989746 -163.57409668 475.01989746 C-163.67293467 472.50236287 -163.70587326 470.01225914 -163.69714451 467.49421597 C-163.69829835 466.69277299 -163.6994522 465.89133002 -163.70064101 465.0656009 C-163.70331507 462.3453037 -163.69877906 459.62506417 -163.6943512 456.9047699 C-163.69478674 454.94875133 -163.69566133 452.99273281 -163.69694036 451.03671461 C-163.69918869 445.6346206 -163.69515945 440.23254622 -163.6901623 434.83045471 C-163.6858628 429.0151487 -163.68730387 423.19984389 -163.68806458 417.38453674 C-163.68859013 407.3001218 -163.68544005 397.2157133 -163.67982674 387.13129997 C-163.67171598 372.55074719 -163.66909361 357.9701969 -163.66783874 343.38964219 C-163.66573655 319.7363629 -163.65899422 296.08308697 -163.64953613 272.42980957 C-163.64035649 249.44641132 -163.63327053 226.46301398 -163.62902832 203.47961426 C-163.62889679 202.77156328 -163.62876527 202.06351231 -163.62862976 201.33400524 C-163.62731127 194.2236733 -163.62603545 187.11334136 -163.6247909 180.00300941 C-163.62225447 165.51755493 -163.61943321 151.03210051 -163.61643982 136.54664612 C-163.61623388 135.54754943 -163.61623388 135.54754943 -163.61602379 134.52826897 C-163.60681817 90.02547706 -163.59095164 45.52268704 -163.57409668 1.01989746 C-143.64094194 0.88887745 -123.70778334 0.75846002 -103.77462006 0.62874603 C-94.51783565 0.56849419 -85.26105258 0.50805043 -76.00427246 0.44714355 C-67.92939105 0.39401372 -59.85450731 0.34125551 -51.77962065 0.28893042 C-47.51012717 0.26125156 -43.24063502 0.23339554 -38.97114563 0.20509338 C-34.93944773 0.17837343 -30.90774684 0.15215633 -26.87604332 0.1262989 C-25.4088854 0.11680534 -23.94172859 0.10713954 -22.47457314 0.09727287 C-14.98309815 0.04699572 -7.49164394 0.00948297 0 0 Z M-38.57409668 120.01989746 C-38.57409668 197.89989746 -38.57409668 275.77989746 -38.57409668 356.01989746 C4.00163403 356.01989746 52.78029888 355.92907566 86.42590332 325.01989746 C87.23672363 324.3482959 88.04754395 323.67669434 88.88293457 322.98474121 C108.92627795 306.02025242 120.43958381 280.51204169 123.21496582 254.64001465 C125.91918811 221.05006835 120.0914955 188.61654736 98.42590332 162.01989746 C97.85098145 161.29157715 97.27605957 160.56325684 96.68371582 159.81286621 C74.45446724 132.85059581 40.30214354 124.71650321 7.42590332 120.01989746 C-7.75409668 120.01989746 -22.93409668 120.01989746 -38.57409668 120.01989746 Z " fill="#A9A9A9" transform="translate(1969.5740966796875,114.9801025390625)"/>
<path d="M0 0 C118.8 0 237.6 0 360 0 C359.05179659 4.74101707 357.5237668 8.62925291 355.52734375 12.97265625 C355.17302277 13.75490067 354.81870178 14.53714508 354.4536438 15.34309387 C353.68752204 17.03304394 352.91904368 18.72192723 352.14846802 20.40985107 C350.49873484 24.02362358 348.86018978 27.64243101 347.22111511 31.26104736 C346.37712157 33.12421622 345.53256275 34.9871291 344.68745422 36.84979248 C341.08930081 44.78469715 337.54593086 52.74306269 334.02041626 60.71044922 C327.42859293 75.60563049 320.73820633 90.45480002 314.01348877 105.29040527 C309.2863601 115.71997859 304.57374698 126.15463186 299.9375 136.625 C295.12327997 147.49729739 290.25730569 158.345636 285.375 169.1875 C284.99468628 170.03206757 284.61437256 170.87663513 284.22253418 171.74679565 C282.27164373 176.07877476 280.32027255 180.41053712 278.36865234 184.7421875 C274.47269289 193.38961567 270.57995239 202.03849276 266.6875 210.6875 C266.30873718 211.52904633 265.92997437 212.37059265 265.53973389 213.23764038 C260.85144238 223.6546852 256.16984799 234.07467174 251.5 244.5 C246.44908173 255.7760589 241.38350377 267.04546263 236.3125 278.3125 C235.9360434 279.149021 235.55958679 279.98554199 235.17172241 280.84741211 C231.22355227 289.62051481 227.27400872 298.39299583 223.32087708 307.16386414 C221.70552331 310.74814937 220.09081231 314.332724 218.47616577 317.91732788 C217.7149532 319.60678419 216.95343013 321.29610065 216.19155884 322.98526001 C215.123005 325.35439943 214.05554863 327.72403082 212.98828125 330.09375 C212.68784912 330.75908249 212.38741699 331.42441498 212.07788086 332.10990906 C208.65609147 339.713512 205.34271424 347.35951031 202 355 C254.47 355 306.94 355 361 355 C361.020625 374.614375 361.04125 394.22875 361.0625 414.4375 C361.071604 420.64103271 361.08070801 426.84456543 361.09008789 433.23608398 C361.09460449 440.78527832 361.09460449 440.78527832 361.09544373 444.31434631 C361.09698383 446.79013753 361.10051009 449.26592797 361.10557556 451.74171448 C361.11284867 455.4820385 361.11390757 459.2223165 361.11352539 462.96264648 C361.1171235 464.0738835 361.12072161 465.18512053 361.12442875 466.33003139 C361.12305125 467.33059598 361.12167376 468.33116056 361.12025452 469.36204529 C361.12163721 470.67698298 361.12163721 470.67698298 361.12304783 472.01848507 C361 474 361 474 360 475 C358.08695231 475.09767515 356.17023822 475.12371318 354.25469875 475.12304783 C352.37067857 475.1260344 352.37067857 475.1260344 350.44859737 475.12908131 C349.03664916 475.12622771 347.62470114 475.12328211 346.2127533 475.12025452 C344.72696192 475.12069009 343.24117062 475.12156473 341.75537974 475.12284368 C337.6530628 475.12509142 333.55077172 475.12106357 329.44845808 475.11606562 C325.03193813 475.11176528 320.61541976 475.11320725 316.19889832 475.1139679 C308.54050791 475.1144934 300.88212599 475.11134388 293.22373772 475.10573006 C282.15086087 475.09761858 271.07798815 475.0950002 260.00510866 475.09374207 C242.04205904 475.09155099 224.07901395 475.0848894 206.1159668 475.07543945 C188.66186547 475.06626677 171.20776536 475.05918523 153.75366211 475.05493164 C152.14107858 475.05453756 152.14107858 475.05453756 150.49591761 475.05413551 C145.1029226 475.05283051 139.70992758 475.0515668 134.31693256 475.05032361 C89.54461857 475.03994927 44.77230952 475.02232945 0 475 C0.72011834 470.14689668 2.08857628 466.12263236 4.17578125 461.70703125 C4.65701195 460.66554932 4.65701195 460.66554932 5.14796448 459.60302734 C5.8372676 458.11309813 6.52980717 456.62466272 7.22528076 455.13760376 C8.70534937 451.97236076 10.16930053 448.79975513 11.63397217 445.62736511 C12.37609315 444.02009137 13.11897399 442.41316826 13.86260986 440.80659485 C16.93193647 434.1704155 19.92283102 427.50163815 22.875 420.8125 C27.74892138 409.79305341 32.67697681 398.79883547 37.625 387.8125 C38.00504181 386.96856689 38.38508362 386.12463379 38.77664185 385.25512695 C40.72781204 380.92250926 42.67943786 376.59009703 44.63134766 372.2578125 C48.52730711 363.61038433 52.42004761 354.96150724 56.3125 346.3125 C56.69126282 345.47095367 57.07002563 344.62940735 57.46026611 343.76235962 C62.14855762 333.3453148 66.83015201 322.92532826 71.5 312.5 C76.55091809 301.2239415 81.61634598 289.95446946 86.6875 278.6875 C87.06595062 277.84665863 87.44440125 277.00581726 87.83432007 276.13949585 C90.94813738 269.2214524 94.06250116 262.30365498 97.17687988 255.38586426 C99.88900266 249.36152175 102.60092 243.33708683 105.3125 237.3125 C105.69135345 236.4707724 106.07020691 235.6290448 106.46054077 234.7618103 C111.66031783 223.20825066 116.84968261 211.65010172 122.02856445 200.0871582 C127.37704502 188.14964323 132.74718586 176.22188833 138.11914062 164.29492188 C142.68850452 154.14775895 147.245525 143.99509646 151.796875 133.83984375 C152.40152401 132.49084207 153.00617892 131.14184303 153.61083984 129.79284668 C155.07396103 126.52859484 156.53700302 123.26430751 158 120 C156.78767873 119.99365209 156.78767873 119.99365209 155.55086613 119.98717594 C135.91422296 119.88401495 116.27761697 119.77539935 96.64103794 119.66066074 C87.14506339 119.60530726 77.64908509 119.55182184 68.15307617 119.50268555 C59.87944795 119.45986968 51.60584762 119.41359835 43.33226246 119.36312145 C38.94868048 119.33649951 34.56510412 119.311646 30.18148994 119.29092598 C26.06033787 119.27139205 21.93923901 119.24725821 17.81813431 119.21950912 C16.30114772 119.21012143 14.78414943 119.20245238 13.26714516 119.19658089 C11.20489836 119.18834873 9.14278174 119.17408059 7.08058167 119.15821838 C5.34530637 119.14853956 5.34530637 119.14853956 3.57497501 119.1386652 C1 119 1 119 0 118 C0 79.06 0 40.12 0 0 Z " fill="#A9A9A9" transform="translate(2247,116)"/>
</svg>
